<?xml version="1.0" encoding="UTF-8"?>
<!-- Generator: visioncortex VTracer -->
<svg id="svg" version="1.1" xmlns="http://www.w3.org/2000/svg" style="display: block;" viewBox="0 0 287 488"><path d="M0 0 C4.29 0 8.58 0 13 0 C13.103125 1.629375 13.20625 3.25875 13.3125 4.9375 C14.01675441 12.15610765 14.83120245 18.3552824 20.25 23.5625 C24.61433318 27.07013074 29.51804158 29.42359394 34.48461914 31.94506836 C43.03380325 36.40191255 49.93456119 43.12980547 53.1875 52.375 C53.803763 55.12448106 54.1489511 57.53461016 54.375 60.3125 C54.58125 61.529375 54.7875 62.74625 55 64 C56.32 64.66 57.64 65.32 59 66 C59 71.61 59 77.22 59 83 C59.66 83 60.32 83 61 83 C61.4021875 81.7934375 61.4021875 81.7934375 61.8125 80.5625 C62.204375 79.716875 62.59625 78.87125 63 78 C75.22552017 73.92482661 87.54158454 82.17113861 98.3125 87.3125 C102.21495249 89.19492242 106.10941261 91.09318921 110 93 C111.16861572 93.57186035 111.16861572 93.57186035 112.36083984 94.15527344 C116.92798203 96.39685378 121.47184267 98.68075716 126 101 C126.67063477 101.34160156 127.34126953 101.68320313 128.03222656 102.03515625 C130.06811663 103.07664036 132.09742669 104.12992937 134.125 105.1875 C134.72892578 105.49647217 135.33285156 105.80544434 135.95507812 106.1237793 C141.67913082 109.14721622 146.53262787 112.71683045 150.125 118.1875 C150.80949219 119.19876953 150.80949219 119.19876953 151.5078125 120.23046875 C155.66602551 127.94819917 157.84710151 135.79596378 159.4375 144.375 C159.64431396 145.45515381 159.85112793 146.53530762 160.06420898 147.64819336 C160.4995205 149.93846766 160.9295183 152.22975764 161.35449219 154.52197266 C161.98651978 157.92736791 162.63712838 161.32883677 163.2890625 164.73046875 C167.35362792 186.30321563 170.93494794 208.20746003 171.4375 230.1875 C171.69902541 240.24306444 173.57311006 249.36213809 176.20263672 259.04492188 C177.43280491 263.60400204 178.59685178 268.1793323 179.75537109 272.75708008 C180.357418 275.13420347 180.96783481 277.50922987 181.58837891 279.8815918 C183.40855694 286.99556615 184.67979186 294.02749542 185.58129883 301.31665039 C185.7162761 303.91282184 185.7162761 303.91282184 187 305 C187.08669432 306.4887186 187.10703494 307.981445 187.09765625 309.47265625 C187.09443359 310.37177734 187.09121094 311.27089844 187.08789062 312.19726562 C187.07951172 313.14279297 187.07113281 314.08832031 187.0625 315.0625 C187.05798828 316.01189453 187.05347656 316.96128906 187.04882812 317.93945312 C187.0370011 320.29303065 187.02052025 322.64648477 187 325 C185.12011719 325.58959961 185.12011719 325.58959961 183 326 C181.078125 324.56640625 181.078125 324.56640625 179.25 322.5625 C178.63640625 321.90378906 178.0228125 321.24507813 177.390625 320.56640625 C176.93171875 320.04949219 176.4728125 319.53257812 176 319 C176.0721875 319.63421875 176.144375 320.2684375 176.21875 320.921875 C176.5526127 324.27904997 176.78807675 327.63277501 177 331 C177.07130127 332.06951904 177.07130127 332.06951904 177.14404297 333.16064453 C178.6213933 358.43794628 170.48386817 382.39216027 154.40625 401.9375 C152.875 403.625 152.875 403.625 150 406 C148.35 406 146.7 406 145 406 C143.68 401.71 142.36 397.42 141 393 C140.67 393 140.34 393 140 393 C139.75507813 394.01835937 139.51015625 395.03671875 139.2578125 396.0859375 C134.83998677 413.2370143 125.78412154 433.57126616 110.734375 443.80859375 C108.85941889 445.01893758 108.85941889 445.01893758 107 447 C103.12823066 450.87176934 98.54602325 453.96931784 94 457 C92.35 457 90.7 457 89 457 C89 453.04 89 449.08 89 445 C86.01911249 447.89055759 83.21801759 450.85970835 80.5 454 C77.77405698 457.13454262 75.00940619 460.13056619 72 463 C71.29230469 463.6909375 70.58460938 464.381875 69.85546875 465.09375 C63.52558911 471.07473864 56.48238364 477.61527132 47.4375 478.25 C37.29794874 474.56289045 30.16948083 467.7626916 22.52783203 460.43798828 C19.71470778 457.79028904 16.75711425 455.30647183 13.8046875 452.81640625 C11.74121375 450.73953332 10.4110405 448.55477208 9 446 C8.22157062 449.40562852 7.90021879 452.50765756 8 456 C6.26171875 456.65625 6.26171875 456.65625 4 457 C1.95703125 456.03125 1.95703125 456.03125 -0.1875 454.5 C-0.96609375 453.94699219 -1.7446875 453.39398438 -2.546875 452.82421875 C-3.35640625 452.22222656 -4.1659375 451.62023437 -5 451 C-5.83015625 450.38769531 -6.6603125 449.77539062 -7.515625 449.14453125 C-13.67800976 444.48298536 -13.67800976 444.48298536 -16 441 C-16.99 440.67 -17.98 440.34 -19 440 C-20.7294339 437.67552359 -22.31795175 435.37276409 -23.875 432.9375 C-24.32335205 432.24793213 -24.7717041 431.55836426 -25.23364258 430.84790039 C-26.11308252 429.49214386 -26.98894414 428.13405804 -27.86083984 426.7734375 C-28.73432409 425.41360262 -29.62355241 424.0638699 -30.51953125 422.71875 C-35.18755053 415.5996303 -39.96839166 407.41162339 -42.01953125 399.12890625 C-42.50486328 397.58009766 -42.50486328 397.58009766 -43 396 C-43.99 395.67 -44.98 395.34 -46 395 C-46.04898438 395.62648438 -46.09796875 396.25296875 -46.1484375 396.8984375 C-46.22320312 397.71570313 -46.29796875 398.53296875 -46.375 399.375 C-46.44460937 400.18710937 -46.51421875 400.99921875 -46.5859375 401.8359375 C-47 404 -47 404 -49 406 C-53.76352226 405.62051605 -56.41396063 402.17784976 -59.55859375 398.9140625 C-67.14673295 389.85685955 -72.4564616 379.22989009 -76 368 C-76.391875 366.86820312 -76.78375 365.73640625 -77.1875 364.5703125 C-81.61492554 349.53551328 -80.35695026 333.51772602 -80 318 C-81.65 319.98 -83.3 321.96 -85 324 C-86.32 323.67 -87.64 323.34 -89 323 C-89.67575035 300.97053851 -86.94167526 282.47072738 -80.46264648 261.48193359 C-77.0424653 250.32134237 -75.68066179 239.38693044 -74.85385132 227.78771973 C-73.04296233 202.88376044 -69.45253313 178.30938946 -65 153.75 C-64.77530029 152.48446289 -64.55060059 151.21892578 -64.3190918 149.91503906 C-61.61821723 135.5927088 -58.24555972 120.41859851 -46.52734375 110.7734375 C-36.7778409 103.93220984 -25.45349192 99.25797326 -14.70703125 94.2265625 C-10.35127045 92.17982615 -6.04595249 90.0438509 -1.75 87.875 C-0.45074996 87.22610353 0.84872692 86.57766105 2.1484375 85.9296875 C4.10057061 84.95610205 6.04752425 83.97543139 7.98535156 82.97363281 C22.92008442 75.26089436 22.92008442 75.26089436 31 77 C34.77926421 78.55852843 34.77926421 78.55852843 36 81 C36.33 76.05 36.66 71.1 37 66 C37.99 65.67 38.98 65.34 40 65 C39.9724314 59.04518246 39.02001103 54.61842905 35.19140625 49.96875 C30.92552409 46.13629972 25.74498771 43.6521437 20.72460938 40.94824219 C11.31017429 35.77190217 5.2117659 29.89416802 1.125 19.875 C-0.82083345 13.49130078 -0.2345882 6.59453491 0 0 Z " transform="translate(97,6)" style="fill: #060C0F;"/><path d="M0 0 C0.15375588 17.84526393 0.30179298 35.6905656 0.4429636 53.53593349 C0.50864127 61.82126276 0.57621237 70.10656861 0.64819336 78.3918457 C0.71090444 85.61066866 0.77011143 92.82951024 0.82505554 100.04839665 C0.85428983 103.8731016 0.88531606 107.69777359 0.92053413 111.52242851 C0.9535896 115.11822636 0.98197951 118.71403009 1.00670624 122.30989456 C1.02140397 124.26708514 1.04112473 126.22423596 1.06095886 128.18138123 C1.0715181 129.91255188 1.0715181 129.91255188 1.08229065 131.67869568 C1.09058679 132.688059 1.09888292 133.69742231 1.10743046 134.7373724 C1 137 1 137 0 138 C-1.36922039 138.2799295 -2.74610538 138.52245963 -4.125 138.75 C-14.22564686 140.70076871 -23.64300975 144.3314688 -32.9465332 148.62866211 C-39.70307714 151.66308342 -46.62115303 154.32766877 -53.5 157.0703125 C-54.65242188 157.534375 -55.80484375 157.9984375 -56.9921875 158.4765625 C-58.02714355 158.88986816 -59.06209961 159.30317383 -60.12841797 159.72900391 C-63.04553543 160.9331546 -63.04553543 160.9331546 -65.68798828 162.72021484 C-66.45095215 163.14254395 -67.21391602 163.56487305 -68 164 C-68.99 163.67 -69.98 163.34 -71 163 C-72.16796875 160.34765625 -72.16796875 160.34765625 -73.1875 157.0625 C-73.53167969 155.98097656 -73.87585938 154.89945313 -74.23046875 153.78515625 C-75 151 -75 151 -75 149 C-75.66 149 -76.32 149 -77 149 C-77.37511719 148.01 -77.75023437 147.02 -78.13671875 146 C-78.65206444 144.66605465 -79.169107 143.33276408 -79.6875 142 C-80.08980835 140.95670532 -80.08980835 140.95670532 -80.50024414 139.89233398 C-81.96558076 136.20414523 -83.42646664 133.17307784 -85.9375 130.0625 C-92.28631282 120.46782227 -85.45808981 99.76184593 -83.5625 89.125 C-83.24598326 87.30742412 -82.9302246 85.48971605 -82.61523438 83.671875 C-74.8833994 39.31543936 -74.8833994 39.31543936 -61.703125 29.69921875 C-55.61944513 25.87494022 -49.10015771 22.61033384 -42.4140625 19.984375 C-38.73837757 18.48555202 -35.36805858 16.48113963 -31.9140625 14.53515625 C-29 13 -29 13 -25.6328125 11.5625 C-21.71528265 9.87754092 -17.99889718 7.96220499 -14.25 5.9375 C-13.59128906 5.58623047 -12.93257813 5.23496094 -12.25390625 4.87304688 C-3.17106274 0 -3.17106274 0 0 0 Z " transform="translate(123,94)" style="fill: #4493C5;"/><path d="M0 0 C5.06791409 0 6.02028019 0.2757455 10 2.875 C13.27139111 4.99118113 16.35779999 6.61867941 20 8 C22.67735363 9.31519126 25.34110231 10.64846729 28 12 C34.13539407 15.11164685 40.27739478 18.13831418 46.5625 20.9375 C57.05149177 25.76118005 68.46692231 31.53614198 73.25 42.625 C76.23927362 51.06681134 78.03098184 59.70506282 78.76171875 68.6171875 C79.28120242 73.8120242 80.48247154 78.8937148 81.7265625 83.95703125 C90.35425949 119.29572952 90.35425949 119.29572952 83.5 133.0625 C82.7010913 134.3962337 81.88118458 135.71913528 81 137 C80.34 137 79.68 137 79 137 C78.855625 137.928125 78.71125 138.85625 78.5625 139.8125 C78 143 78 143 77 146 C76.34 146 75.68 146 75 146 C74.9175 146.969375 74.835 147.93875 74.75 148.9375 C74.1000875 153.67119101 72.07694677 157.73984407 70 162 C64.1977353 161.49049576 59.86615902 159.78444346 54.6875 157.1875 C53.18990467 156.45736952 51.69120925 155.72949103 50.19140625 155.00390625 C49.47355957 154.65602051 48.75571289 154.30813477 48.01611328 153.94970703 C44.70394005 152.38948011 41.31157433 151.06738137 37.8828125 149.7890625 C36 149 36 149 33 147 C31.74441363 146.52049351 30.47065742 146.08741331 29.1875 145.6875 C19.02790299 142.41660535 9.02824467 138.64663443 -1 135 C-0.67 90.45 -0.34 45.9 0 0 Z " transform="translate(168,95)" style="fill: #4493C6;"/><path d="M0 0 C0.10022461 0.57443848 0.20044922 1.14887695 0.30371094 1.74072266 C0.77126422 4.37163756 1.26042435 6.99809782 1.75 9.625 C1.90726562 10.52863281 2.06453125 11.43226563 2.2265625 12.36328125 C3.43247915 18.71753439 5.19010074 23.08441868 9.765625 27.83203125 C12.98894268 29.51694731 16.18814965 29.56966941 19.75 29.6875 C20.79607422 29.73874023 20.79607422 29.73874023 21.86328125 29.79101562 C23.57497108 29.87308295 25.2874576 29.93822919 27 30 C27 29.34 27 28.68 27 28 C27.598125 27.773125 28.19625 27.54625 28.8125 27.3125 C31.77340322 25.53595807 32.47642612 24.14237113 34 21 C34.92286637 17.42852549 35.56034881 13.82107245 36.1875 10.1875 C36.36474609 9.20845703 36.54199219 8.22941406 36.72460938 7.22070312 C37.15876193 4.81526329 37.58356826 2.40855976 38 0 C43.32892916 0.5311419 47.88181828 1.44195568 52.9375 3.3125 C54.14792969 3.75980469 55.35835938 4.20710937 56.60546875 4.66796875 C60.09027449 6.03542417 63.47987135 7.53663158 66.875 9.109375 C69.13833578 10.05797897 71.38489049 10.72307879 73.75 11.375 C78.89374044 12.84690111 83.57000429 15.01058747 88.39453125 17.3046875 C92.5028947 19.23646403 96.6497949 21.06416317 100.8125 22.875 C101.88105225 23.3405127 101.88105225 23.3405127 102.97119141 23.81542969 C104.64697117 24.54474618 106.3234111 25.27254551 108 26 C107.38081644 33.30275327 106.33690811 40.47217079 105.0625 47.6875 C104.89298828 48.68072266 104.72347656 49.67394531 104.54882812 50.69726562 C103.63786109 55.91021386 102.57595089 60.9470633 101 66 C100.34 66 99.68 66 99 66 C98.67 66.99 98.34 67.98 98 69 C86.7090983 70.7030969 79.86466462 66.21891096 71 60 C69.20517387 58.71272716 67.41307599 57.42163274 65.625 56.125 C56.54840535 49.72236122 47.99486782 49.1533726 37 50 C29.49045481 51.11271311 29.49045481 51.11271311 22.98046875 54.66796875 C21 56 21 56 18.56640625 55.8125 C15.95975563 54.98725901 13.45799859 54.05962228 10.9375 53 C1.66116092 49.11222769 -8.81981566 47.95384249 -18.43359375 51.421875 C-24.52990284 53.92871696 -29.91529998 56.73484435 -35 61 C-36.71619597 62.01700502 -38.43445597 63.03229074 -40.1875 63.984375 C-42.00926068 64.97203046 -42.00926068 64.97203046 -43.6875 66.140625 C-48.29686134 69.17085329 -52.52260556 69.91289907 -58 69 C-58.99 68.34 -59.98 67.68 -61 67 C-61 66.34 -61 65.68 -61 65 C-61.66 65 -62.32 65 -63 65 C-64.67475356 61.65049287 -64.8358877 57.86477616 -65.375 54.1875 C-66.42230899 47.23997871 -67.69790095 40.47174913 -69.44921875 33.6640625 C-69.99411544 31.0284629 -70.10242269 28.68249914 -70 26 C-69.17757812 25.69707031 -68.35515625 25.39414062 -67.5078125 25.08203125 C-62.08117984 23.04547742 -56.7746049 20.98266551 -51.625 18.3125 C-47.80953113 16.33433556 -44.14590616 15.16376313 -40 14 C-38.36545247 13.27104227 -36.74150293 12.51814275 -35.125 11.75 C-28.23279879 8.53237015 -21.09543367 6.10145415 -13.90429688 3.65039062 C-12.27190527 3.09286611 -10.64335731 2.52410963 -9.015625 1.953125 C-5.89254617 0.87127416 -3.32972851 0 0 0 Z " transform="translate(126,238)" style="fill: #4493C6;"/><path d="M0 0 C4.29 0 8.58 0 13 0 C13.103125 1.629375 13.20625 3.25875 13.3125 4.9375 C14.01675441 12.15610765 14.83120245 18.3552824 20.25 23.5625 C24.61433318 27.07013074 29.51804158 29.42359394 34.48461914 31.94506836 C43.03380325 36.40191255 49.93456119 43.12980547 53.1875 52.375 C53.803763 55.12448106 54.1489511 57.53461016 54.375 60.3125 C54.58125 61.529375 54.7875 62.74625 55 64 C56.32 64.66 57.64 65.32 59 66 C59 71.61 59 77.22 59 83 C59.66 83 60.32 83 61 83 C61.4021875 81.7934375 61.4021875 81.7934375 61.8125 80.5625 C62.204375 79.716875 62.59625 78.87125 63 78 C75.22552017 73.92482661 87.54158454 82.17113861 98.3125 87.3125 C102.21495249 89.19492242 106.10941261 91.09318921 110 93 C111.16861572 93.57186035 111.16861572 93.57186035 112.36083984 94.15527344 C116.92798203 96.39685378 121.47184267 98.68075716 126 101 C126.67063477 101.34160156 127.34126953 101.68320313 128.03222656 102.03515625 C130.06811663 103.07664036 132.09742669 104.12992937 134.125 105.1875 C134.72892578 105.49647217 135.33285156 105.80544434 135.95507812 106.1237793 C141.67913082 109.14721622 146.53262787 112.71683045 150.125 118.1875 C150.80949219 119.19876953 150.80949219 119.19876953 151.5078125 120.23046875 C155.66602551 127.94819917 157.84710151 135.79596378 159.4375 144.375 C159.64431396 145.45515381 159.85112793 146.53530762 160.06420898 147.64819336 C160.4995205 149.93846766 160.9295183 152.22975764 161.35449219 154.52197266 C161.98651978 157.92736791 162.63712838 161.32883677 163.2890625 164.73046875 C167.35362792 186.30321563 170.93494794 208.20746003 171.4375 230.1875 C171.69902541 240.24306444 173.57311006 249.36213809 176.20263672 259.04492188 C177.43280491 263.60400204 178.59685178 268.1793323 179.75537109 272.75708008 C180.357418 275.13420347 180.96783481 277.50922987 181.58837891 279.8815918 C183.40855694 286.99556615 184.67979186 294.02749542 185.58129883 301.31665039 C185.7162761 303.91282184 185.7162761 303.91282184 187 305 C187.08669432 306.4887186 187.10703494 307.981445 187.09765625 309.47265625 C187.09443359 310.37177734 187.09121094 311.27089844 187.08789062 312.19726562 C187.07951172 313.14279297 187.07113281 314.08832031 187.0625 315.0625 C187.05798828 316.01189453 187.05347656 316.96128906 187.04882812 317.93945312 C187.0370011 320.29303065 187.02052025 322.64648477 187 325 C185.12011719 325.58959961 185.12011719 325.58959961 183 326 C181.078125 324.56640625 181.078125 324.56640625 179.25 322.5625 C178.63640625 321.90378906 178.0228125 321.24507813 177.390625 320.56640625 C176.93171875 320.04949219 176.4728125 319.53257812 176 319 C176.0721875 319.63421875 176.144375 320.2684375 176.21875 320.921875 C176.5526127 324.27904997 176.78807675 327.63277501 177 331 C177.07130127 332.06951904 177.07130127 332.06951904 177.14404297 333.16064453 C178.6213933 358.43794628 170.48386817 382.39216027 154.40625 401.9375 C152.875 403.625 152.875 403.625 150 406 C148.35 406 146.7 406 145 406 C143.68 401.71 142.36 397.42 141 393 C140.67 393 140.34 393 140 393 C139.75507813 394.01835937 139.51015625 395.03671875 139.2578125 396.0859375 C134.83998677 413.2370143 125.78412154 433.57126616 110.734375 443.80859375 C108.85941889 445.01893758 108.85941889 445.01893758 107 447 C103.12823066 450.87176934 98.54602325 453.96931784 94 457 C92.35 457 90.7 457 89 457 C89 453.04 89 449.08 89 445 C86.01911249 447.89055759 83.21801759 450.85970835 80.5 454 C77.77405698 457.13454262 75.00940619 460.13056619 72 463 C71.29230469 463.6909375 70.58460938 464.381875 69.85546875 465.09375 C63.52558911 471.07473864 56.48238364 477.61527132 47.4375 478.25 C37.29794874 474.56289045 30.16948083 467.7626916 22.52783203 460.43798828 C19.71470778 457.79028904 16.75711425 455.30647183 13.8046875 452.81640625 C11.74121375 450.73953332 10.4110405 448.55477208 9 446 C8.22157062 449.40562852 7.90021879 452.50765756 8 456 C6.26171875 456.65625 6.26171875 456.65625 4 457 C1.95703125 456.03125 1.95703125 456.03125 -0.1875 454.5 C-0.96609375 453.94699219 -1.7446875 453.39398438 -2.546875 452.82421875 C-3.35640625 452.22222656 -4.1659375 451.62023437 -5 451 C-5.83015625 450.38769531 -6.6603125 449.77539062 -7.515625 449.14453125 C-13.67800976 444.48298536 -13.67800976 444.48298536 -16 441 C-16.99 440.67 -17.98 440.34 -19 440 C-20.7294339 437.67552359 -22.31795175 435.37276409 -23.875 432.9375 C-24.32335205 432.24793213 -24.7717041 431.55836426 -25.23364258 430.84790039 C-26.11308252 429.49214386 -26.98894414 428.13405804 -27.86083984 426.7734375 C-28.73432409 425.41360262 -29.62355241 424.0638699 -30.51953125 422.71875 C-35.18755053 415.5996303 -39.96839166 407.41162339 -42.01953125 399.12890625 C-42.50486328 397.58009766 -42.50486328 397.58009766 -43 396 C-43.99 395.67 -44.98 395.34 -46 395 C-46.04898438 395.62648438 -46.09796875 396.25296875 -46.1484375 396.8984375 C-46.22320312 397.71570313 -46.29796875 398.53296875 -46.375 399.375 C-46.44460937 400.18710937 -46.51421875 400.99921875 -46.5859375 401.8359375 C-47 404 -47 404 -49 406 C-53.76352226 405.62051605 -56.41396063 402.17784976 -59.55859375 398.9140625 C-67.14673295 389.85685955 -72.4564616 379.22989009 -76 368 C-76.391875 366.86820312 -76.78375 365.73640625 -77.1875 364.5703125 C-81.61492554 349.53551328 -80.35695026 333.51772602 -80 318 C-81.65 319.98 -83.3 321.96 -85 324 C-86.32 323.67 -87.64 323.34 -89 323 C-89.67575035 300.97053851 -86.94167526 282.47072738 -80.46264648 261.48193359 C-77.0424653 250.32134237 -75.68066179 239.38693044 -74.85385132 227.78771973 C-73.04296233 202.88376044 -69.45253313 178.30938946 -65 153.75 C-64.77530029 152.48446289 -64.55060059 151.21892578 -64.3190918 149.91503906 C-61.61821723 135.5927088 -58.24555972 120.41859851 -46.52734375 110.7734375 C-36.7778409 103.93220984 -25.45349192 99.25797326 -14.70703125 94.2265625 C-10.35127045 92.17982615 -6.04595249 90.0438509 -1.75 87.875 C-0.45074996 87.22610353 0.84872692 86.57766105 2.1484375 85.9296875 C4.10057061 84.95610205 6.04752425 83.97543139 7.98535156 82.97363281 C22.92008442 75.26089436 22.92008442 75.26089436 31 77 C34.77926421 78.55852843 34.77926421 78.55852843 36 81 C36.33 76.05 36.66 71.1 37 66 C37.99 65.67 38.98 65.34 40 65 C39.9724314 59.04518246 39.02001103 54.61842905 35.19140625 49.96875 C30.92552409 46.13629972 25.74498771 43.6521437 20.72460938 40.94824219 C11.31017429 35.77190217 5.2117659 29.89416802 1.125 19.875 C-0.82083345 13.49130078 -0.2345882 6.59453491 0 0 Z M2 2 C1.25149851 12.56218765 2.95473298 21.75849323 9.6875 30.1875 C14.93566345 35.62809611 21.28741749 38.65696186 28.01171875 41.89453125 C34.0092692 44.8868897 38.47098347 48.57262129 41.3203125 54.73046875 C42.53397105 58.78297228 42.30850118 62.81809512 42 67 C41.01 67.33 40.02 67.66 39 68 C38.67 74.27 38.34 80.54 38 87 C34 83 34 83 32 80 C27.39429374 78.34234279 22.9458877 78.71348034 18.4375 80.4375 C16.61003082 81.25915281 14.799319 82.11840595 13 83 C12.41299316 83.28584961 11.82598633 83.57169922 11.22119141 83.86621094 C7.14110779 85.86008856 3.08804197 87.90439195 -0.95849609 89.96533203 C-2.93200827 90.96554067 -4.91149736 91.95241824 -6.89453125 92.93359375 C-14.00384245 96.42618011 -14.00384245 96.42618011 -20.9375 100.25 C-24.20550076 102.117429 -27.52960772 103.54874505 -31 105 C-33.00812926 105.98357352 -35.00854609 106.98308736 -37 108 C-39 109 -41 110 -43 111 C-43 111.66 -43 112.32 -43 113 C-43.88558594 113.4021875 -43.88558594 113.4021875 -44.7890625 113.8125 C-51.69502078 117.52170727 -54.62041219 123.78900861 -56.96875 130.99609375 C-57.2263913 131.78132919 -57.48403259 132.56656464 -57.7494812 133.37559509 C-60.71376261 142.77403611 -62.45014057 152.36658263 -64.125 162.0625 C-64.29364563 163.01477478 -64.46229126 163.96704956 -64.63604736 164.94818115 C-68.57274048 187.18570319 -71.47532667 209.39813182 -73 231.9375 C-73.70981733 242.29017792 -75.28147782 251.99424048 -78 262 C-78.35698975 263.31460205 -78.35698975 263.31460205 -78.72119141 264.65576172 C-79.49806301 267.50066455 -80.27988403 270.34417255 -81.0625 273.1875 C-82.05079433 276.78925638 -83.03169966 280.39281523 -84 284 C-84.1851416 284.68658691 -84.3702832 285.37317383 -84.56103516 286.08056641 C-87.58365668 297.66175735 -87.31760963 309.11488495 -87 321 C-85.88625 319.7934375 -85.88625 319.7934375 -84.75 318.5625 C-82.11159248 316.1039839 -81.32514161 315.6181353 -78 315 C-78.02094727 315.94093506 -78.04189453 316.88187012 -78.06347656 317.85131836 C-78.95276181 342.28212658 -78.95276181 342.28212658 -74 366 C-73.5875 367.24523437 -73.175 368.49046875 -72.75 369.7734375 C-68.69557554 381.28930368 -62.26822546 393.8414609 -53 402 C-52.34 402 -51.68 402 -51 402 C-50.67 402.66 -50.34 403.32 -50 404 C-49.82984375 403.30132812 -49.6596875 402.60265625 -49.484375 401.8828125 C-49.24203125 400.97273438 -48.9996875 400.06265625 -48.75 399.125 C-48.51796875 398.22007812 -48.2859375 397.31515625 -48.046875 396.3828125 C-47 394 -47 394 -44.890625 392.6796875 C-43.95476563 392.34324219 -43.95476563 392.34324219 -43 392 C-40.63545285 394.36454715 -40.38862789 395.80093958 -39.5 399 C-32.85776802 419.59587604 -17.62319739 441.48391624 1.0625 452.6875 C2.031875 453.120625 3.00125 453.55375 4 454 C4.66 453.67 5.32 453.34 6 453 C5.979375 451.9275 5.95875 450.855 5.9375 449.75 C6.02839117 444.29652997 6.02839117 444.29652997 7 442 C7.99 441.67 8.98 441.34 10 441 C10.2475 441.53625 10.495 442.0725 10.75 442.625 C13.51121539 447.87130925 16.37751611 451.34501274 21 455 C22.16598719 456.29462897 23.31018723 457.60905874 24.4375 458.9375 C27.3949077 462.3921138 30.34980211 465.28357366 34 468 C34.66 468 35.32 468 36 468 C36 468.66 36 469.32 36 470 C40.20030858 472.60432487 44.20402626 474.73872119 49 476 C53.33763525 474.86217203 56.48442993 472.72911533 60 470 C60.76183594 469.47277344 61.52367187 468.94554687 62.30859375 468.40234375 C62.86675781 467.93957031 63.42492187 467.47679687 64 467 C64 466.34 64 465.68 64 465 C64.598125 464.71125 65.19625 464.4225 65.8125 464.125 C68.19327792 462.95257974 68.19327792 462.95257974 71 461 C71 460.34 71 459.68 71 459 C71.66 459 72.32 459 73 459 C73 458.34 73 457.68 73 457 C73.66 457 74.32 457 75 457 C79.60601898 452.53320578 83.3764264 447.2706525 87 442 C88.32 442.33 89.64 442.66 91 443 C91 446.96 91 450.92 91 455 C99.93554802 449.81163361 99.93554802 449.81163361 107.8125 443.1875 C109.8189526 441.1810474 111.89472479 439.39007691 114.0625 437.5625 C117.05520684 434.96547694 119.32634343 432.66112376 121 429 C121 428.34 121 427.68 121 427 C121.66 427 122.32 427 123 427 C124.33819498 424.3773768 125.6707151 421.75213401 127 419.125 C127.3815625 418.37863281 127.763125 417.63226563 128.15625 416.86328125 C128.5171875 416.14785156 128.878125 415.43242187 129.25 414.6953125 C129.58515625 414.03547363 129.9203125 413.37563477 130.265625 412.69580078 C131.13246413 411.0021145 131.13246413 411.0021145 131 409 C131.66 409 132.32 409 133 409 C134.98 402.4 136.96 395.8 139 389 C139.99 389 140.98 389 142 389 C143.65 393.95 145.3 398.9 147 404 C147.66 404 148.32 404 149 404 C150.36639342 402.3603279 151.6949419 400.68889872 153 399 C153.721875 398.319375 154.44375 397.63875 155.1875 396.9375 C157.09124975 394.90245717 157.61164058 393.71851591 158 391 C158.66 391 159.32 391 160 391 C169.6393651 372.6423647 176.49934116 353.99077631 175 333 C174.91508288 331.4142144 174.8331783 329.82826531 174.75390625 328.2421875 C174.54135105 324.15829911 174.28274468 320.07960176 174 316 C177.39192363 316.59283621 179.2107757 317.76743189 181.75 320.0625 C182.36359375 320.61035156 182.9771875 321.15820312 183.609375 321.72265625 C184.06828125 322.14417969 184.5271875 322.56570313 185 323 C185.02684679 320.35409986 185.04676357 317.70846904 185.0625 315.0625 C185.07087891 314.30775391 185.07925781 313.55300781 185.08789062 312.77539062 C185.09652441 310.85005687 185.05224333 308.92464419 185 307 C184.67 306.67 184.34 306.34 184 306 C183.52572541 303.31445787 183.09584309 300.63317015 182.6875 297.9375 C181.41340288 289.95609604 179.68295243 282.20917976 177.62402344 274.39501953 C176.31655796 269.37693018 175.07036344 264.34320076 173.8125 259.3125 C173.55041748 258.27206543 173.28833496 257.23163086 173.01831055 256.15966797 C172.77121338 255.17498535 172.52411621 254.19030273 172.26953125 253.17578125 C172.04885986 252.29833252 171.82818848 251.42088379 171.60083008 250.5168457 C170.65774539 246.56631339 169.88561908 242.87957906 169.89453125 238.80859375 C169.71367465 224.62834807 168.10967889 210.78248311 166.1875 196.75 C166.06275299 195.82508759 165.93800598 194.90017517 165.80947876 193.94723511 C164.236365 182.36703176 162.30001613 170.9216168 159.90332031 159.4831543 C159.11959123 155.7030324 158.47051465 151.91335224 157.8802948 148.098526 C155.8618794 135.16708018 152.06978781 121.73309545 141.8046875 113.05859375 C131.41509051 105.4328032 118.82951458 100.44024024 107.22265625 94.9609375 C102.87505901 92.90480098 98.55491046 90.80024718 94.24609375 88.6640625 C93.13024902 88.11524414 92.0144043 87.56642578 90.86474609 87.00097656 C88.71343782 85.94170456 86.56637193 84.87375865 84.42431641 83.79589844 C75.42121016 79.29989196 75.42121016 79.29989196 65.625 79.6875 C63.69118315 81.24942899 62.91641622 82.70895944 62 85 C60.68 85 59.36 85 58 85 C57.67 79.39 57.34 73.78 57 68 C55.68 67.34 54.36 66.68 53 66 C52.2421875 63.35546875 52.2421875 63.35546875 51.875 60.1875 C50.76588477 51.07691062 47.21896629 44.42737985 40.125 38.5625 C36.08179119 35.52499691 31.80238093 33.28080038 27.3125 31 C20.25865489 27.385002 15.6936513 24.19380322 12.6875 16.75 C11.78952897 11.85197619 11.34117145 6.96494239 11 2 C8.03 2 5.06 2 2 2 Z " transform="translate(97,6)" style="fill: #F2F2F2;"/><path d="M0 0 C8.00183537 2.95214366 16.19646763 4.18939866 24.61303711 5.40527344 C26.11362671 5.62812012 26.11362671 5.62812012 27.64453125 5.85546875 C28.54405518 5.98074951 29.4435791 6.10603027 30.37036133 6.23510742 C32.5625 6.75 32.5625 6.75 34.5625 8.75 C35.84586586 15.01822906 34.02155468 20.13781861 30.9609375 25.57421875 C29.00948766 28.61041305 27.88693497 30.1938815 24.5625 31.75 C17.10935835 32.7494227 11.66758166 32.19005939 5.5625 27.75 C5.5625 27.09 5.5625 26.43 5.5625 25.75 C4.5725 25.42 3.5825 25.09 2.5625 24.75 C2.5625 24.09 2.5625 23.43 2.5625 22.75 C-0.0775 22.42 -2.7175 22.09 -5.4375 21.75 C-5.46900265 31.68621989 -5.46288616 41.62164159 -5.40903378 51.55778694 C-5.38520189 56.17189009 -5.37422221 60.78527138 -5.39282227 65.39941406 C-5.41030417 69.85433442 -5.39375409 74.30795929 -5.35382271 78.76272202 C-5.34454428 80.46030316 -5.34743101 82.15799673 -5.36280632 83.8555336 C-5.7985846 92.88490748 -5.7985846 92.88490748 -2.84809875 101.06828308 C-1.00940706 102.70437454 -1.00940706 102.70437454 0.98248291 103.79658508 C2.5625 104.75 2.5625 104.75 3.38671875 107.34765625 C3.15522112 111.52122775 2.95142249 114.10626622 0.75 117.75 C-2.45012825 120.67583155 -3.89608857 121.71507023 -8.3125 122 C-11.7789242 121.88572228 -14.41996078 121.59405174 -17.4375 119.75 C-20.14875983 116.59907641 -21.31771593 114.4088124 -22.0625 110.3125 C-21.22630404 105.54618302 -18.95134615 102.97254284 -15.4375 99.75 C-14.7775 99.42 -14.1175 99.09 -13.4375 98.75 C-13.1075 73.67 -12.7775 48.59 -12.4375 22.75 C-21.06270814 22.74705089 -21.06270814 22.74705089 -24.3125 26.6875 C-25.01375 27.698125 -25.715 28.70875 -26.4375 29.75 C-29.95789707 32.09693138 -31.63807009 32.07723764 -35.8125 32.125 C-37.49472656 32.16753906 -37.49472656 32.16753906 -39.2109375 32.2109375 C-44.34019476 31.47818646 -46.6908836 28.54870592 -50.125 24.875 C-54.06184612 19.55493768 -54.69931907 15.29547681 -54.4375 8.75 C-48.07811382 6.15186598 -41.78548776 4.61395694 -35.0625 3.25 C-29.33707306 2.07923328 -23.71495775 0.88817878 -18.1484375 -0.90625 C-11.42551374 -2.97484192 -6.53510568 -2.55554191 0 0 Z " transform="translate(154.4375,319.25)" style="fill: #468FC0;"/><path d="M0 0 C3.27684678 0.76161087 5.47111051 2.30603564 8 4.46484375 C9.23690014 8.17554416 9.56264919 11.60882129 9 15.46484375 C7.125 18.46484375 7.125 18.46484375 5 20.46484375 C4.34 20.46484375 3.68 20.46484375 3 20.46484375 C3.0314209 21.68067139 3.0628418 22.89649902 3.09521484 24.14916992 C3.20397113 28.66826791 3.27275325 33.18725075 3.32958984 37.70727539 C3.35972831 39.66190046 3.4006477 41.61639067 3.45263672 43.57055664 C3.52558389 46.38331374 3.55948459 49.19428081 3.5859375 52.0078125 C3.61690521 52.87883102 3.64787292 53.74984955 3.67977905 54.64726257 C3.6830725 60.60990861 3.6830725 60.60990861 1.7144165 63.07388306 C0.12353516 64.3996582 0.12353516 64.3996582 -3 66.46484375 C-4.68711423 68.11080885 -6.3545622 69.77721524 -8 71.46484375 C-8.73605469 72.191875 -9.47210938 72.91890625 -10.23046875 73.66796875 C-13.47983108 76.94941223 -16.61347557 80.32607834 -19.75 83.71484375 C-32.67026521 97.59411446 -32.67026521 97.59411446 -36 100.46484375 C-36.66 100.46484375 -37.32 100.46484375 -38 100.46484375 C-37.98445572 101.15309235 -37.96891144 101.84134094 -37.95289612 102.55044556 C-37.7979086 109.72038306 -37.69240376 116.88984413 -37.61547852 124.06103516 C-37.58424805 126.73712083 -37.53256746 129.41058667 -37.47192383 132.08642578 C-37.38690863 135.93425647 -37.34728459 139.78030709 -37.31640625 143.62890625 C-37.28027725 144.82287018 -37.24414825 146.01683411 -37.20692444 147.24697876 C-37.20639572 148.36768768 -37.205867 149.48839661 -37.20532227 150.64306641 C-37.18977798 151.62457672 -37.1742337 152.60608704 -37.15821838 153.61734009 C-38 156.46484375 -38 156.46484375 -45 162.46484375 C-45 141.01484375 -45 119.56484375 -45 97.46484375 C-43.515 96.96984375 -43.515 96.96984375 -42 96.46484375 C-42 95.80484375 -42 95.14484375 -42 94.46484375 C-40.75976562 93.16455078 -40.75976562 93.16455078 -38.90625 91.59765625 C-38.17535156 90.97020508 -37.44445312 90.34275391 -36.69140625 89.69628906 C-34.7162092 88.05865291 -32.72856569 86.45484271 -30.71484375 84.86621094 C-13.17238611 71.406379 -13.17238611 71.406379 -4.26428223 52.08132935 C-3.87752489 47.85551413 -3.83284529 43.70312806 -4 39.46484375 C-4.03182373 38.64594666 -4.06364746 37.82704956 -4.09643555 36.9833374 C-4.24190307 27.94225854 -4.24190307 27.94225854 -8.0234375 20.18359375 C-9.00183594 19.3328125 -9.00183594 19.3328125 -10 18.46484375 C-11.52378039 13.89350257 -12.13623817 9.07712964 -10.1640625 4.54296875 C-7.4304474 0.69022264 -4.66193679 -0.36200646 0 0 Z " transform="translate(253,283.53515625)" style="fill: #4584B1;"/><path d="M0 0 C5.08073659 0.03959016 7.93200241 0.83000217 11.8125 4.3125 C13.91604635 7.46781953 14.07163215 8.27573915 14.11889648 11.88818359 C14.13488388 12.81279388 14.15087128 13.73740417 14.16734314 14.69003296 C14.17538719 16.18538071 14.17538719 16.18538071 14.18359375 17.7109375 C14.19713646 19.25160385 14.19713646 19.25160385 14.21095276 20.82339478 C14.22546559 22.99714234 14.23434455 25.17093369 14.23803711 27.34472656 C14.24993046 30.66806784 14.29910488 33.98955087 14.34960938 37.3125 C14.35907385 39.4244701 14.36630877 41.53645161 14.37109375 43.6484375 C14.39062607 44.64128754 14.41015839 45.63413757 14.43028259 46.65707397 C14.3850634 53.58321621 14.3850634 53.58321621 11.39086914 57.39697266 C6.55765253 60.98767595 2.94371187 62.10638202 -3.1875 61.3125 C-6.93235017 59.64812215 -9.00662674 57.74884105 -11.1875 54.3125 C-11.58190918 52.04286194 -11.58190918 52.04286194 -11.60742188 49.53149414 C-11.63128967 48.11466087 -11.63128967 48.11466087 -11.65563965 46.66920471 C-11.65584106 45.65559372 -11.65604248 44.64198273 -11.65625 43.59765625 C-11.66767029 42.02581825 -11.66767029 42.02581825 -11.67932129 40.42222595 C-11.69012069 38.20737082 -11.69297606 35.99246478 -11.68847656 33.77758789 C-11.68750447 30.39057414 -11.72912525 27.00582716 -11.7734375 23.61914062 C-11.77864471 21.46615056 -11.78133269 19.31315262 -11.78125 17.16015625 C-11.79764526 16.14856949 -11.81404053 15.13698273 -11.83093262 14.09474182 C-11.76161687 7.03530045 -11.76161687 7.03530045 -8.71289062 3.19702148 C-7.87951172 2.57512939 -7.04613281 1.9532373 -6.1875 1.3125 C-4.47957001 -0.39542999 -2.33206519 0.05979654 0 0 Z " transform="translate(144.1875,137.6875)" style="fill: #F7F7F5;"/><path d="M0 0 C3.65290988 0.74685 6.01360995 2.17309452 8.2421875 5.14453125 C9.43433207 9.04609529 9.47202529 12.76751788 8.1796875 16.64453125 C6.9296875 18.39453125 6.9296875 18.39453125 4.89135742 19.49731445 C2.56226904 21.36855309 2.56226904 21.36855309 2.36450195 25.00463867 C2.3177828 26.50255375 2.2955308 28.00135871 2.29296875 29.5 C2.28202682 30.29803543 2.2710849 31.09607086 2.2598114 31.91828918 C2.24394389 33.60862781 2.23875055 35.29909527 2.2434082 36.98950195 C2.24219925 39.55707464 2.18259802 42.11885591 2.11914062 44.68554688 C1.77592604 54.72467102 1.77592604 54.72467102 6.23828125 63.36328125 C8.02436307 64.99820274 8.02436307 64.99820274 9.9296875 66.39453125 C11.18288967 67.49506219 12.43326254 68.59883052 13.6796875 69.70703125 C14.67548828 70.55394531 14.67548828 70.55394531 15.69140625 71.41796875 C22.29574763 77.25007475 28.5239457 83.62652273 34.1015625 90.4453125 C35.76974184 92.40580743 35.76974184 92.40580743 37.61543274 93.39228821 C39.89876157 94.8768852 41.33726802 96.1691341 42.9296875 98.39453125 C43.92262016 103.16890164 43.74599988 107.91136823 43.61328125 112.76171875 C43.60021157 114.16559371 43.59025386 115.56950078 43.58326721 116.97341919 C43.55664709 120.65349801 43.48798467 124.33161658 43.41033936 128.01092529 C43.33849472 131.77133671 43.30671095 135.5320676 43.27148438 139.29296875 C43.19660119 146.66104617 43.07726881 154.02751318 42.9296875 161.39453125 C39.34609894 159.81707374 37.55207992 158.1339081 35.69058228 154.59838867 C34.14195554 150.11294255 34.59655617 145.48196847 34.78515625 140.80078125 C34.83085793 138.53126557 34.87575532 136.26173357 34.91992188 133.9921875 C35.01309767 130.43675664 35.11760355 126.88225145 35.23803711 123.32763672 C35.34694593 119.88116095 35.41218193 116.43589868 35.47265625 112.98828125 C35.52133347 111.93080688 35.57001068 110.87333252 35.62016296 109.78381348 C35.73131387 104.16058081 35.73131387 104.16058081 33.41055298 99.18833923 C31.6664727 97.42616378 29.90109074 95.89381286 27.9296875 94.39453125 C27.2078125 93.75644531 26.4859375 93.11835938 25.7421875 92.4609375 C25.1440625 91.96464844 24.5459375 91.46835937 23.9296875 90.95703125 C21.35692284 88.73576385 19.05933416 86.49034686 16.8671875 83.89453125 C11.4984835 77.54969925 5.44135121 71.82417264 -0.46386719 65.98510742 C-1.25905762 65.19777222 -1.25905762 65.19777222 -2.0703125 64.39453125 C-2.59142105 63.95137573 -3.1125296 63.50822021 -3.64942932 63.05163574 C-5.42666408 60.97893635 -5.43580115 59.98913452 -5.41088867 57.2902832 C-5.41066208 56.46965897 -5.41043549 55.64903473 -5.41020203 54.80354309 C-5.39471817 53.922202 -5.37923431 53.0408609 -5.36328125 52.1328125 C-5.35903641 51.2270195 -5.35479156 50.3212265 -5.35041809 49.38798523 C-5.33362098 46.49403192 -5.295967 43.60077419 -5.2578125 40.70703125 C-5.24276699 38.74545276 -5.22907835 36.78386336 -5.21679688 34.82226562 C-5.18371407 30.01275269 -5.13192472 25.20375992 -5.0703125 20.39453125 C-5.8746875 20.12640625 -6.6790625 19.85828125 -7.5078125 19.58203125 C-8.3534375 19.19015625 -9.1990625 18.79828125 -10.0703125 18.39453125 C-11.59409289 13.82319007 -12.20655067 9.00681714 -10.234375 4.47265625 C-7.36522795 0.42889195 -4.66141947 -0.37819064 0 0 Z " transform="translate(40.0703125,283.60546875)" style="fill: #4986B1;"/><path d="M0 0 C1.2065625 0.0309375 1.2065625 0.0309375 2.4375 0.0625 C2.43892502 0.64021652 2.44035004 1.21793304 2.44181824 1.81315613 C2.4615213 7.83205502 2.51580753 13.84994058 2.59008789 19.8684082 C2.61326945 22.11377693 2.62766395 24.35925442 2.63305664 26.60473633 C2.6423447 29.83483673 2.68333423 33.06322609 2.73046875 36.29296875 C2.7265361 37.29522995 2.72260345 38.29749115 2.71855164 39.3301239 C2.83293344 45.06954431 2.83293344 45.06954431 5.62109375 49.97827148 C7.49761873 51.36695853 9.39355423 52.72979446 11.30786133 54.06591797 C18.69952569 59.45514155 18.69952569 59.45514155 20.01507568 64.10314941 C20.80591034 69.79050777 20.44228004 75.47537081 20.125 81.1875 C20.06973155 82.92432327 20.01955746 84.66131651 19.97460938 86.3984375 C19.85428157 90.62404099 19.66507565 94.84136957 19.4375 99.0625 C20.06140625 99.19269531 20.6853125 99.32289063 21.328125 99.45703125 C23.4375 100.0625 23.4375 100.0625 25.1875 101.75 C26.85295859 104.83109839 26.92305431 106.59425493 26.4375 110.0625 C24.93737532 112.6272293 23.54566535 114.95433465 21.4375 117.0625 C16.85535372 117.64000191 13.44015517 117.66827083 9.4375 115.25 C6.85696301 112.42753767 6.48894553 110.45936551 6 106.6875 C6.144375 105.49125 6.28875 104.295 6.4375 103.0625 C7.41936279 102.31661621 8.40122559 101.57073242 9.4128418 100.80224609 C12.16002064 98.64739861 12.39949336 98.22972922 13.22973633 94.57666016 C13.24286865 93.26487793 13.25600098 91.9530957 13.26953125 90.6015625 C13.27764328 89.89276947 13.28575531 89.18397644 13.29411316 88.45370483 C13.30254818 86.95938067 13.29576908 85.46490197 13.2746582 83.97070312 C13.25012171 81.69876957 13.2947087 79.43540839 13.34570312 77.1640625 C13.50781255 69.54545069 13.50781255 69.54545069 10.91625977 62.54077148 C9.17725744 60.78398002 7.49801317 59.41708079 5.4375 58.0625 C4.550625 57.340625 3.66375 56.61875 2.75 55.875 C0.50956443 54.07312479 0.50956443 54.07312479 -1.68041992 52.64135742 C-4.73783533 48.45203599 -4.07260252 44.0357469 -3.98828125 38.98828125 C-3.98334908 37.36891914 -3.98334908 37.36891914 -3.97831726 35.71684265 C-3.96790132 33.43803875 -3.94795983 31.15926132 -3.91918945 28.88061523 C-3.87503713 25.37794563 -3.85774401 21.87596054 -3.84570312 18.37304688 C-3.83228276 16.16144836 -3.81736081 13.94985834 -3.80078125 11.73828125 C-3.79339432 10.68417557 -3.78600739 9.63006989 -3.77839661 8.54402161 C-3.76556137 7.57599106 -3.75272614 6.60796051 -3.73950195 5.6105957 C-3.72965775 4.7544014 -3.71981354 3.89820709 -3.70967102 3.0160675 C-3.48235297 -0.00138227 -3.04890302 0.07436349 0 0 Z " transform="translate(214.5625,116.9375)" style="fill: #DBF1F8;"/><path d="M0 0 C1.32 0 2.64 0 4 0 C4.30656306 6.89987011 4.51532215 13.79796296 4.65917969 20.703125 C4.71919353 23.04689124 4.80083963 25.39021449 4.90527344 27.73242188 C5.79654185 48.24907118 5.79654185 48.24907118 1.41601562 54.18164062 C-1.41421622 57.29010052 -4.5194845 59.65653628 -8 62 C-9.12003418 62.88413574 -9.12003418 62.88413574 -10.26269531 63.78613281 C-12 65 -12 65 -14 65 C-14 76.22 -14 87.44 -14 99 C-12.68 99.66 -11.36 100.32 -10 101 C-7.20691721 103.59357687 -6.99014968 105.07757124 -6.5 108.9375 C-6.65196075 112.18946005 -7.07522903 113.11648366 -8.9375 116 C-12.49515348 118.32336554 -14.65256287 118.79853128 -18.83984375 118.546875 C-21 118 -21 118 -24.0625 115.4375 C-26.31411371 111.44270148 -26.81930248 109.50616365 -26 105 C-25.16799072 104.27312988 -24.33598145 103.54625977 -23.47875977 102.79736328 C-20.72948774 99.69471787 -20.4785396 98.14781174 -20.58885193 94.07443237 C-20.63042923 93.32541656 -20.67200653 92.57640076 -20.71484375 91.8046875 C-20.74225887 90.18492883 -20.76758156 88.56513365 -20.79101562 86.9453125 C-20.85481458 84.41584291 -20.93674842 81.89068411 -21.05786133 79.36328125 C-21.70358645 64.50723063 -21.70358645 64.50723063 -17.44189453 59.50878906 C-13.75600187 55.87123752 -9.61575442 52.94554425 -5.14892578 50.33154297 C-1.76617168 46.6613201 -2.31033452 42.9454253 -2.36328125 38.125 C-2.35290329 37.16352051 -2.34252533 36.20204102 -2.33183289 35.21142578 C-2.30212946 32.14058727 -2.30552929 29.07095635 -2.3125 26 C-2.30360732 22.92938276 -2.28764868 19.85908945 -2.2610321 16.78857422 C-2.24611948 14.87879867 -2.24231232 12.9688969 -2.25080872 11.05908203 C-2.24521187 9.75753174 -2.24521187 9.75753174 -2.23950195 8.4296875 C-2.24125931 7.66897949 -2.24301666 6.90827148 -2.24482727 6.12451172 C-1.96758693 3.71873255 -1.19457925 2.08971335 0 0 Z " transform="translate(76,116)" style="fill: #D8F0F7;"/><path d="M0 0 C3.83290358 0.26897569 5.61458379 0.8223043 8.5625 3.25 C9.375 5.4375 9.375 5.4375 9.5625 7.25 C10.2225 7.25 10.8825 7.25 11.5625 7.25 C12.47312395 15.9346543 12.47312395 15.9346543 10.33203125 19.02734375 C7.69476555 21.27390342 6.0566174 22.25 2.5625 22.25 C2.6550708 24.14105469 2.6550708 24.14105469 2.74951172 26.0703125 C2.97132931 30.77323111 3.15143077 35.47700258 3.31933594 40.18212891 C3.39757824 42.21351904 3.48694475 44.24451379 3.58789062 46.27490234 C3.73153222 49.2037545 3.83432967 52.13172559 3.9296875 55.0625 C3.98252899 55.96178223 4.03537048 56.86106445 4.08981323 57.78759766 C4.23380879 63.83810242 2.92557561 67.10015245 -0.94259644 71.76049805 C-2.4375 73.25 -2.4375 73.25 -4.4375 74.25 C-4.43892502 73.62217117 -4.44035004 72.99434235 -4.44181824 72.3474884 C-4.46151328 65.80958434 -4.51578305 59.27261417 -4.59008789 52.73510742 C-4.61327689 50.29572247 -4.62766568 47.85623726 -4.63305664 45.41674805 C-4.64233906 41.90870625 -4.68331782 38.40224328 -4.73046875 34.89453125 C-4.7265361 33.80477493 -4.72260345 32.71501862 -4.71855164 31.59223938 C-4.77791698 25.37196078 -4.77791698 25.37196078 -7.91918945 20.1472168 C-8.75023193 19.52113525 -9.58127441 18.89505371 -10.4375 18.25 C-12.17360461 14.77779078 -11.90247786 11.04625758 -11.4375 7.25 C-8.75568182 1.88636364 -8.75568182 1.88636364 -5.625 0.375 C-3.74889848 0.2677942 -1.87421199 0.13630633 0 0 Z " transform="translate(179.4375,383.75)" style="fill: #4983AE;"/><path d="M0 0 C3.26785533 1.3210479 4.54455456 2.21923639 6.3125 5.25 C7.44809076 9.79236304 7.65255462 13.45447591 5.8125 17.8125 C4 20 4 20 -1 22 C-1 39.16 -1 56.32 -1 74 C-8.77292995 66.22707005 -8.77292995 66.22707005 -9.20980835 61.94223022 C-9.25179193 59.39405383 -9.18075227 56.87049766 -9.07421875 54.32421875 C-9.04777786 53.3990596 -9.02133698 52.47390045 -8.99409485 51.52070618 C-8.90656162 48.57563064 -8.79733219 45.63181993 -8.6875 42.6875 C-8.62421733 40.68689379 -8.56235209 38.68624222 -8.50195312 36.68554688 C-8.35105749 31.78968675 -8.18070457 26.89484686 -8 22 C-8.78761719 21.87625 -9.57523437 21.7525 -10.38671875 21.625 C-13 21 -13 21 -14.8125 19 C-16.43588915 14.89880637 -16.84073728 11.34890467 -16 7 C-12.11459056 0.07821504 -7.36540616 -0.70086045 0 0 Z " transform="translate(116,384)" style="fill: #4E8CBA;"/><path d="M0 0 C2.89311223 1.57120925 5.05770036 3.33354819 7 6 C7.89111194 9.87852818 7.2535226 13.23943219 6 17 C4.35 17.66 2.7 18.32 1 19 C1 32.86 1 46.72 1 61 C-0.98 61 -2.96 61 -5 61 C-6 60 -6 60 -6.11352539 56.12280273 C-6.11336621 54.39305833 -6.10766849 52.66330919 -6.09765625 50.93359375 C-6.0962413 50.02497086 -6.09482635 49.11634796 -6.09336853 48.18019104 C-6.08775193 45.26592779 -6.07519665 42.35174019 -6.0625 39.4375 C-6.05748714 37.46679798 -6.05292386 35.49609476 -6.04882812 33.52539062 C-6.03777711 28.68356441 -6.02050138 23.84179505 -6 19 C-6.61875 18.731875 -7.2375 18.46375 -7.875 18.1875 C-10 17 -10 17 -12 14 C-12.67226891 7.05322129 -12.67226891 7.05322129 -10.125 3.0625 C-6.78387804 -0.18035367 -4.62447374 -0.61077955 0 0 Z " transform="translate(209,183)" style="fill: #D3ECF5;"/><path d="M0 0 C-0.00119339 0.86657478 -0.00119339 0.86657478 -0.00241089 1.75065613 C-0.00485069 7.76961631 0.0343625 13.78728779 0.09765625 19.8059082 C0.11581254 22.05128999 0.12338544 24.29678352 0.12011719 26.54223633 C0.11725916 29.77252594 0.15258551 33.00049989 0.1953125 36.23046875 C0.18621857 37.23272995 0.17712463 38.23499115 0.16775513 39.2676239 C0.13213741 44.3272963 0.13213741 44.3272963 2.36932373 48.65444946 C3.86369312 49.8347325 5.42922929 50.92348374 7 52 C7.6390658 55.97640943 7.38725814 58.17016112 5.6875 61.8125 C4 64 4 64 1 66 C-5.94677871 66.67226891 -5.94677871 66.67226891 -9.9375 64.125 C-12.55197555 61.43129792 -12.94056139 60.51513465 -13.375 56.75 C-12.88143528 51.81435284 -11.49888141 50.41557471 -8 47 C-7.34 47 -6.68 47 -6 47 C-6.00666183 46.4406778 -6.01332367 45.88135559 -6.02018738 45.30508423 C-6.08641687 39.49804416 -6.13174871 33.69111087 -6.16479492 27.88378906 C-6.179907 25.71479944 -6.20039735 23.5458405 -6.22631836 21.37695312 C-6.26259534 18.26424604 -6.2797019 15.15194195 -6.29296875 12.0390625 C-6.30845261 11.065065 -6.32393646 10.0910675 -6.33988953 9.08755493 C-6.34011612 8.18677216 -6.34034271 7.28598938 -6.34057617 6.35791016 C-6.34723801 5.56293121 -6.35389984 4.76795227 -6.36076355 3.94888306 C-6.24171158 3.30575165 -6.12265961 2.66262024 -6 2 C-3 0 -3 0 0 0 Z " transform="translate(104,104)" style="fill: #D6EDF5;"/><path d="M0 0 C2 0.3125 2 0.3125 4 1 C5.14290511 3.28581021 5.12439631 4.55579464 5.12597656 7.0949707 C5.13168671 8.36187492 5.13168671 8.36187492 5.13751221 9.65437317 C5.13853943 10.56893784 5.13956665 11.4835025 5.140625 12.42578125 C5.15895343 14.35613159 5.17852378 16.28647046 5.19921875 18.21679688 C5.22819164 21.26508898 5.25000002 24.31264522 5.25048828 27.36108398 C5.25382334 30.29998316 5.28837787 33.23717798 5.328125 36.17578125 C5.3210553 37.08427322 5.3139856 37.9927652 5.30670166 38.92878723 C5.39462962 43.5034958 5.46013712 45.3584582 8.50048828 48.97143555 C9.32532715 49.64086182 10.15016602 50.31028809 11 51 C11.90641796 54.11381227 11.69056879 56.84392942 11 60 C9.0625 63.0625 9.0625 63.0625 6 65 C2.81540028 65.74864008 0.17807491 65.79882896 -3 65 C-6.17457096 62.4085135 -7.54580349 60.92564305 -8.47265625 56.99609375 C-8.77073023 52.9682736 -8.12127583 51.15319052 -5.625 48 C-3 46 -3 46 -1 46 C-1.00222061 45.43845718 -1.00444122 44.87691437 -1.00672913 44.2983551 C-1.02878306 38.47519565 -1.04390705 32.65204799 -1.05493164 26.82885742 C-1.05997308 24.65307127 -1.06680607 22.47728853 -1.07543945 20.30151367 C-1.08751338 17.18146933 -1.09323005 14.06146962 -1.09765625 10.94140625 C-1.10281754 9.96224747 -1.10797882 8.98308868 -1.11329651 7.97425842 C-1.11337204 7.07340012 -1.11344757 6.17254181 -1.11352539 5.24438477 C-1.115746 4.44718521 -1.11796661 3.64998566 -1.12025452 2.82862854 C-1 1 -1 1 0 0 Z " transform="translate(188,105)" style="fill: #DBF2F7;"/><path d="M0 0 C3.0625 1.3125 3.0625 1.3125 5 4 C5.68224423 7.7664392 5.96590007 11.27844386 5 15 C4.17588623 15.35223633 3.35177246 15.70447266 2.50268555 16.06738281 C-0.12652674 17.68801152 -0.12652674 17.68801152 -0.4831543 19.88853455 C-0.6772302 22.4291447 -0.71812578 24.93237752 -0.70703125 27.48046875 C-0.72215256 28.40845779 -0.73727386 29.33644684 -0.75285339 30.29255676 C-0.79585616 33.25778258 -0.80458046 36.22199294 -0.8125 39.1875 C-0.83563454 41.19729286 -0.86099769 43.2070614 -0.88867188 45.21679688 C-0.95164851 50.14462151 -0.98388551 55.07180826 -1 60 C-2.98 60 -4.96 60 -7 60 C-7.00410889 58.77893555 -7.00821777 57.55787109 -7.01245117 56.29980469 C-7.03423216 51.76698666 -7.08851094 47.23503798 -7.15258789 42.70263672 C-7.17577695 40.74145849 -7.19016574 38.78015557 -7.19555664 36.81884766 C-7.20483968 33.99823217 -7.24581459 31.17958028 -7.29296875 28.359375 C-7.2890361 27.48319519 -7.28510345 26.60701538 -7.28105164 25.70428467 C-7.3497397 20.5357504 -7.3497397 20.5357504 -10.48168945 16.54003906 C-11.31273193 16.03182617 -12.14377441 15.52361328 -13 15 C-14.61707958 11.76584084 -14.56822376 8.49624735 -14 5 C-10.39012179 -0.58948884 -6.17780032 -1.13948577 0 0 Z " transform="translate(88,184)" style="fill: #E0F2F7;"/><path d="M0 0 C2.29141286 -0.05384521 4.58318188 -0.09272087 6.875 -0.125 C8.78925781 -0.15980469 8.78925781 -0.15980469 10.7421875 -0.1953125 C14 0 14 0 16 2 C16.27817477 7.65622026 15.81744429 13.1926033 15.1875 18.8125 C15.11724609 19.56208984 15.04699219 20.31167969 14.97460938 21.08398438 C14.64012703 24.07827033 14.36584052 26.46441791 12.64453125 28.984375 C9.75254602 30.77039914 7.27674858 30.40959357 4 30 C1.11614423 27.78904391 0.9765631 25.87429302 0.3125 22.3125 C-0.31084088 14.90721032 -0.07671576 7.42438088 0 0 Z " transform="translate(138,222)" style="fill: #F1F1EF;"/><path d="M0 0 C1.98 0 3.96 0 6 0 C6.10892951 1.72774308 6.18601092 3.45750948 6.25 5.1875 C6.29640625 6.15042969 6.3428125 7.11335938 6.390625 8.10546875 C5.7562935 12.80586519 3.07899065 15.08700791 -0.4375 18.0625 C-2.14583333 19.35416667 -3.85416667 20.64583333 -5.5625 21.9375 C-10.12540686 25.68149572 -10.12540686 25.68149572 -12.38818359 30.97460938 C-12.57994436 33.23950029 -12.65875621 35.47732442 -12.6875 37.75 C-12.91004673 45.91004673 -12.91004673 45.91004673 -14 47 C-17 47.125 -17 47.125 -20 47 C-22.55387322 44.44612678 -21.84814136 38.09830645 -21.9519043 34.57958984 C-21.82212626 29.94490815 -21.3626324 26.8141079 -18.27734375 23.24609375 C-15.58489719 20.64531989 -12.6674629 18.39500355 -9.61962891 16.22753906 C-7.72243815 14.8491083 -7.72243815 14.8491083 -5.26171875 12.2421875 C-3 10 -3 10 0 9 C0 6.03 0 3.06 0 0 Z " transform="translate(215,336)" style="fill: #4279A2;"/><path d="M0 0 C1.32 0 2.64 0 4 0 C4.33 2.64 4.66 5.28 5 8 C5.99 8.33 6.98 8.66 8 9 C9.6484375 10.70703125 9.6484375 10.70703125 11.375 12.8125 C14.03938718 15.95826806 16.71455838 18.49268929 20 21 C22.74646768 23.09663381 24.74358256 24.67298751 25.41943359 28.1706543 C25.52791159 30.71428507 25.4855815 33.20662554 25.375 35.75 C25.35373047 37.06291016 25.35373047 37.06291016 25.33203125 38.40234375 C25.1828497 44.8171503 25.1828497 44.8171503 24 46 C22.00041636 46.04080783 19.99954746 46.04254356 18 46 C17.95101562 44.81921875 17.90203125 43.6384375 17.8515625 42.421875 C17.77651121 40.86456063 17.70096439 39.30727009 17.625 37.75 C17.5940625 36.97269531 17.563125 36.19539063 17.53125 35.39453125 C17.31806713 29.89792139 17.31806713 29.89792139 15 25 C13.67592331 24.31513275 12.34090759 23.65129797 11 23 C9.29006566 21.3777546 7.62652316 19.70586575 6 18 C5.113125 17.113125 4.22625 16.22625 3.3125 15.3125 C-1 11 -1 11 -1.1875 7.0625 C-1.16190316 4.32363845 -0.88664156 2.65992468 0 0 Z " transform="translate(71,336)" style="fill: #477DA4;"/><path d="M0 0 C2 3 2 3 1.625 6.1875 C1.41875 7.115625 1.2125 8.04375 1 9 C-5.38707103 10.32561852 -5.38707103 10.32561852 -8 8.9375 C-9.49870491 6.03375925 -8.86683331 4.06725634 -8 1 C-5.21136993 -0.39431504 -3.07921132 -0.25660094 0 0 Z " transform="translate(149,425)" style="fill: #0C2031;"/><path d="M0 0 C2.14915785 3.22373677 2.38286803 4.26703674 2 8 C0 10 0 10 -2.4375 10.3125 C-5 10 -5 10 -6.8125 8.875 C-8.49106106 6.22464043 -8.20450238 4.06753576 -8 1 C-5.21136993 -0.39431504 -3.07921132 -0.25660094 0 0 Z " transform="translate(182,391)" style="fill: #0B1B28;"/><path d="M0 0 C3.0625 0.1875 3.0625 0.1875 5.0625 2.1875 C5.3125 4.6875 5.3125 4.6875 5.0625 7.1875 C3.0625 9.1875 3.0625 9.1875 0 9.375 C-2.9375 9.1875 -2.9375 9.1875 -3.9375 8.1875 C-4.0625 4.6875 -4.0625 4.6875 -3.9375 1.1875 C-2.9375 0.1875 -2.9375 0.1875 0 0 Z " transform="translate(110.9375,390.8125)" style="fill: #072030;"/><path d="M0 0 C2.33944736 0.28730055 4.6739143 0.61936779 7 1 C7.125 3.375 7.125 3.375 7 6 C5 8 5 8 2.5 8.25 C0 8 0 8 -2 6 C-1.44444444 1.44444444 -1.44444444 1.44444444 0 0 Z " transform="translate(204,189)" style="fill: #659AC0;"/><path d="M0 0 C4.55555556 0.55555556 4.55555556 0.55555556 6 2 C6.1875 4.4375 6.1875 4.4375 6 7 C5.34 7.66 4.68 8.32 4 9 C-0.55555556 8.44444444 -0.55555556 8.44444444 -2 7 C-2.1875 4.5625 -2.1875 4.5625 -2 2 C-1.34 1.34 -0.68 0.68 0 0 Z " transform="translate(58,220)" style="fill: #6498BB;"/><path d="M0 0 C2.625 0.375 2.625 0.375 5 1 C5.625 3.875 5.625 3.875 6 7 C5.34 7.66 4.68 8.32 4 9 C-0.55555556 8.44444444 -0.55555556 8.44444444 -2 7 C-2.1875 4.5625 -2.1875 4.5625 -2 2 C-1.34 1.34 -0.68 0.68 0 0 Z " transform="translate(99,156)" style="fill: #5993B7;"/><path d="M0 0 C3 0.125 3 0.125 4 1.125 C4.1875 3.5625 4.1875 3.5625 4 6.125 C3.34 6.785 2.68 7.445 2 8.125 C-2.55555556 7.56944444 -2.55555556 7.56944444 -4 6.125 C-4.125 3.625 -4.125 3.625 -4 1.125 C-3 0.125 -3 0.125 0 0 Z " transform="translate(231,220.875)" style="fill: #6394B8;"/><path d="M0 0 C3.125 0.375 3.125 0.375 6 1 C6 2.98 6 4.96 6 7 C3.6739143 7.38063221 1.33944736 7.71269945 -1 8 C-2 7 -2 7 -2.1875 4.5625 C-2 2 -2 2 0 0 Z " transform="translate(82,189)" style="fill: #6A9DBC;"/><path d="M0 0 C3 0.125 3 0.125 4 1.125 C4.25 3.5625 4.25 3.5625 4 6.125 C1 8.125 1 8.125 -1.125 7.8125 C-3 7.125 -3 7.125 -4 6.125 C-4.125 3.625 -4.125 3.625 -4 1.125 C-3 0.125 -3 0.125 0 0 Z " transform="translate(190,156.875)" style="fill: #6299BC;"/><path d="M0 0 C0.66 0.33 1.32 0.66 2 1 C-2.29 5.29 -6.58 9.58 -11 14 C-11.66 13.67 -12.32 13.34 -13 13 C-9.13242719 8.04467233 -4.81123996 4.03523352 0 0 Z " transform="translate(215,352)" style="fill: #0F273C;"/><path d="M0 0 C0.66 0.33 1.32 0.66 2 1 C-0.31 3.31 -2.62 5.62 -5 8 C-5 5 -5 5 -2.5 2.3125 C-1.675 1.549375 -0.85 0.78625 0 0 Z " transform="translate(139,138)" style="fill: #C0C4C4;"/></svg>