<?xml version="1.0" encoding="UTF-8"?>
<svg xmlns="http://www.w3.org/2000/svg" width="474" height="270" viewBox="0 0 474 270" fill="none">
  <g clip-path="url(#clip0_7289_13022)">
    <g clip-path="url(#clip1_7289_13022)">
      <path d="M356.678 189.695L363.886 173.794C365.298 170.663 365.75 169.979 367.235 169.6V168.537H359.721V169.6C362.197 170.139 362.474 171.391 361.323 174.056L358.426 180.958L354.843 172.833C354.086 171.042 354.188 170.008 356.824 169.702V168.522H346.791V169.702C347.97 170.008 348.436 170.503 349.456 172.643L355.819 186.375L354.756 188.661C354.144 190 353.577 190.991 352.921 191.558C352.47 190 351.582 189.156 350.213 189.156C348.844 189.156 347.665 190.073 347.665 191.864C347.665 193.655 349.121 194.995 350.825 194.995C353.285 194.995 354.814 193.772 356.678 189.695ZM346.5 184.889L345.932 183.666C344.898 184.118 343.981 184.351 343.18 184.351C341.389 184.351 340.923 183.433 340.923 182.181V170.707H345.772V168.537H340.923V164.984H340.238L333.38 169.483V170.707H336.161V183.171C336.161 185.647 337.574 186.986 340.355 186.986C342.539 186.986 344.665 186.258 346.5 184.889ZM332.011 185.428C329.652 185.079 329.303 184.584 329.303 182.487V167.882H327.439L321.833 171.537V172.381H324.541V182.487C324.541 184.584 324.163 185.079 321.833 185.428V186.608H332.011V185.428ZM326.594 165.013C328.196 165.013 329.492 163.717 329.492 162.072C329.492 160.616 328.385 159.436 326.9 159.436C325.226 159.436 323.959 160.732 323.959 162.334C323.959 163.834 325.066 165.013 326.594 165.013ZM319.925 181.002C319.925 177.449 316.984 176.342 314.246 175.468C311.538 174.595 309.674 174.012 309.674 172.032C309.674 170.969 310.475 169.979 312.033 169.979C313.984 169.979 315.688 171.158 317.756 173.488L318.746 173.036L317.29 168.304H316.678L315.994 168.872C314.931 168.421 313.708 168.144 312.412 168.144C308.364 168.144 305.743 170.474 305.743 173.983C305.743 177.536 308.684 178.555 311.422 179.473C314.13 180.39 315.994 180.929 315.994 182.938C315.994 184.19 315.047 185.151 313.213 185.151C310.664 185.151 308.713 183.477 306.383 180.492L305.349 180.87L306.835 186.826H307.49L308.597 186.025C309.849 186.637 311.261 186.972 312.834 186.972C316.722 186.986 319.925 184.7 319.925 181.002ZM300.049 185.428C297.574 185.05 297.224 184.511 297.224 182.152V174.303C297.981 172.935 298.709 171.944 299.481 171.245C299.481 172.731 300.515 173.692 301.811 173.692C303.107 173.692 304.359 172.658 304.359 170.678C304.359 169.003 303.413 167.969 301.724 167.969C299.86 167.969 298.404 169.527 297.035 171.741V167.882H295.36L289.827 171.508V172.352H292.463V182.501C292.463 184.598 292.113 185.137 289.944 185.443V186.622H300.049V185.428ZM276.183 175.046C276.183 171.959 277.479 170.124 279.998 170.124C281.746 170.124 282.852 171.376 283.318 173.866L276.227 176.313C276.183 175.89 276.183 175.468 276.183 175.046ZM288.109 183.171L287.075 182.37C286.041 183.55 284.483 184.351 282.692 184.351C279.183 184.351 277.202 181.686 276.474 178.206L287.92 174.391C287.687 170.343 284.716 168.144 280.945 168.144C275.644 168.144 271.756 172.41 271.756 177.711C271.756 182.967 275.106 186.972 281.017 186.972C284.643 186.986 286.813 185.384 288.109 183.171ZM268.131 173.794C269.543 170.663 269.995 169.979 271.48 169.6V168.537H263.966V169.6C266.442 170.139 266.718 171.391 265.568 174.056L262.67 180.958L259.088 172.833C258.331 171.042 258.433 170.008 261.068 169.702V168.522H251.036V169.702C252.215 170.008 252.71 170.503 253.7 172.643L260.224 186.797H262.204L268.131 173.794ZM250.701 185.428C248.342 185.079 247.992 184.584 247.992 182.487V167.882H246.128L240.522 171.537V172.381H243.231V182.487C243.231 184.584 242.852 185.079 240.522 185.428V186.608H250.701V185.428ZM245.284 165.013C246.886 165.013 248.182 163.717 248.182 162.072C248.182 160.616 247.075 159.436 245.59 159.436C243.915 159.436 242.648 160.732 242.648 162.334C242.663 163.834 243.77 165.013 245.284 165.013ZM226.034 185.428C223.864 185.122 223.515 184.584 223.515 182.487V173.677C225.422 171.959 226.98 171.129 228.364 171.129C230.228 171.129 230.766 172.075 230.766 173.794V182.487C230.766 184.584 230.417 185.122 228.247 185.428V186.608H238.047V185.428C235.877 185.122 235.528 184.584 235.528 182.487V173.371C235.528 170.313 234.232 168.144 230.373 168.144C228.014 168.144 225.684 169.6 223.398 171.537V167.882H221.651L216.118 171.508V172.352H218.753V182.501C218.753 184.598 218.404 185.137 216.234 185.443V186.622H226.034V185.428ZM184.461 163.004V174.449C184.461 181.846 188.32 187.001 198.032 187.001C207.745 187.001 211.604 181.846 211.604 174.609V165.421C211.604 160.965 212.856 159.815 215.04 159.203V158.024H205.808V159.203C207.978 159.815 209.245 160.951 209.245 165.421V174.609C209.245 181.06 205.852 184.03 199.445 184.03C193.082 184.03 189.645 181.06 189.645 174.609V163.018C189.645 160.121 190.49 159.625 192.892 159.276V158.024H181.301V159.276C183.704 159.611 184.461 160.106 184.461 163.004ZM404.614 144.103C402.444 143.797 402.095 143.259 402.095 141.162V132.367C404.003 130.648 405.561 129.818 406.944 129.818C408.808 129.818 409.347 130.765 409.347 132.483V141.176C409.347 143.273 408.997 143.812 406.827 144.118V145.297H416.627V144.118C414.458 143.812 414.108 143.273 414.108 141.176V132.061C414.108 129.003 412.812 126.833 408.953 126.833C406.594 126.833 404.265 128.289 401.978 130.226V126.571H400.231L394.698 130.197V131.042H397.333V141.191C397.333 143.288 396.984 143.826 394.814 144.132V145.312H404.614V144.103ZM389.441 144.103C386.966 143.724 386.616 143.186 386.616 140.827V132.978C387.373 131.609 388.102 130.619 388.873 129.92C388.873 131.406 389.907 132.367 391.203 132.367C392.499 132.367 393.751 131.333 393.751 129.352C393.751 127.678 392.805 126.644 391.116 126.644C389.252 126.644 387.796 128.202 386.427 130.415V126.557H384.752L379.219 130.182V131.027H381.855V141.176C381.855 143.273 381.505 143.812 379.336 144.118V145.297H389.441V144.103ZM365.561 133.735C365.561 130.648 366.857 128.814 369.376 128.814C371.123 128.814 372.23 130.066 372.696 132.556L365.604 135.002C365.561 134.58 365.561 134.158 365.561 133.735ZM377.501 141.861L376.467 141.06C375.433 142.239 373.875 143.04 372.084 143.04C368.575 143.04 366.594 140.375 365.866 136.895L377.312 133.095C377.079 129.047 374.108 126.848 370.337 126.848C365.036 126.848 361.148 131.114 361.148 136.415C361.148 141.671 364.498 145.676 370.41 145.676C374.035 145.676 376.205 144.074 377.501 141.861ZM359.882 143.579L359.314 142.356C358.28 142.807 357.363 143.04 356.562 143.04C354.771 143.04 354.305 142.123 354.305 140.87V129.396H359.154V127.226H354.305V123.674H353.62L346.762 128.173V129.396H349.543V141.861C349.543 144.336 350.956 145.676 353.737 145.676C355.921 145.676 358.047 144.948 359.882 143.579ZM345.466 139.691C345.466 136.138 342.525 135.031 339.787 134.158C337.079 133.284 335.215 132.702 335.215 130.721C335.215 129.658 336.016 128.668 337.574 128.668C339.525 128.668 341.229 129.848 343.296 132.177L344.286 131.726L342.83 126.994H342.219L341.534 127.561C340.471 127.11 339.248 126.833 337.952 126.833C333.904 126.833 331.283 129.163 331.283 132.672C331.283 136.225 334.225 137.245 336.962 138.162C339.671 139.079 341.534 139.618 341.534 141.628C341.534 142.88 340.588 143.841 338.753 143.841C336.205 143.841 334.254 142.166 331.924 139.181L330.89 139.56L332.375 145.516H333.031L334.137 144.715C335.39 145.326 336.802 145.661 338.375 145.661C342.262 145.676 345.466 143.39 345.466 139.691ZM316.11 140.404C316.11 138.453 316.984 137.55 321.454 136.327V141.861C320.391 142.705 319.43 143.084 318.484 143.084C316.984 143.084 316.11 142.283 316.11 140.404ZM324.498 145.516C326.143 145.516 327.89 144.758 329.041 143.957L328.691 142.894C326.827 143.244 326.143 142.967 326.143 141.715V131.537C326.143 128.479 324.803 126.848 320.493 126.848C315.644 126.848 312.106 129.44 312.106 131.886C312.106 133.066 312.907 134.056 314.276 134.056C315.834 134.056 316.605 133.022 316.824 132.003C317.057 130.823 316.678 129.949 316.096 129.454C317.042 129.003 318.003 128.77 318.993 128.77C320.639 128.77 321.44 129.338 321.44 130.823V134.638C314.61 136.313 311.48 137.798 311.48 141.424C311.48 144.205 313.271 145.69 316.096 145.69C317.887 145.69 319.954 144.933 321.702 143.55C321.979 144.802 322.852 145.516 324.498 145.516ZM297.457 133.735C297.457 130.648 298.753 128.814 301.272 128.814C303.02 128.814 304.126 130.066 304.592 132.556L297.501 135.002C297.457 134.58 297.457 134.158 297.457 133.735ZM309.398 141.861L308.364 141.06C307.33 142.239 305.772 143.04 303.981 143.04C300.471 143.04 298.491 140.375 297.763 136.895L309.208 133.08C308.975 129.032 306.005 126.833 302.233 126.833C296.933 126.833 293.045 131.1 293.045 136.4C293.045 141.657 296.394 145.661 302.306 145.661C305.932 145.676 308.102 144.074 309.398 141.861ZM279.037 144.103C276.867 143.797 276.518 143.259 276.518 141.162V132.308C278.353 130.634 279.765 129.789 281.367 129.789C283.231 129.789 283.77 130.736 283.77 132.454V141.147C283.77 143.244 283.42 143.783 281.25 144.089V145.268H291.05V144.089C288.881 143.783 288.531 143.244 288.531 141.147V132.032C288.531 128.974 287.235 126.804 283.376 126.804C281.047 126.804 278.76 128.173 276.518 130.081V115.01H275.106L268.961 119.014V119.858H271.742V141.176C271.742 143.273 271.392 143.812 269.223 144.118V145.297H279.023V144.103H279.037ZM268.102 143.579L267.534 142.356C266.5 142.807 265.582 143.04 264.782 143.04C262.991 143.04 262.525 142.123 262.525 140.87V129.396H267.373V127.226H262.525V123.674H261.84L254.982 128.173V129.396H257.763V141.861C257.763 144.336 259.175 145.676 261.957 145.676C264.126 145.676 266.267 144.948 268.102 143.579ZM249.405 144.103C246.929 143.724 246.58 143.186 246.58 140.827V132.978C247.337 131.609 248.065 130.619 248.837 129.92C248.837 131.406 249.871 132.367 251.167 132.367C252.463 132.367 253.715 131.333 253.715 129.352C253.715 127.678 252.768 126.644 251.079 126.644C249.215 126.644 247.759 128.202 246.391 130.415V126.557H244.716L239.183 130.182V131.027H241.818V141.176C241.818 143.273 241.469 143.812 239.299 144.118V145.297H249.405V144.103ZM221.869 134.303C221.869 130.867 223.355 128.697 226.485 128.697C230.533 128.697 231.713 133.648 231.713 138.191C231.713 141.628 230.228 143.797 227.097 143.797C223.063 143.797 221.869 138.846 221.869 134.303ZM236.489 136.022C236.489 131.027 233.14 126.833 226.995 126.833C220.821 126.833 217.122 131.289 217.122 136.487C217.122 141.482 220.471 145.676 226.616 145.676C232.776 145.676 236.489 141.205 236.489 136.022ZM211.618 124.081C211.618 119.625 212.87 118.475 215.055 117.864V116.684H205.823V117.864C207.992 118.475 209.259 119.611 209.259 124.081V137.507L189.805 117.878C188.742 116.815 188.32 116.699 187.636 116.699H180.428V117.878C181.986 118.024 182.903 118.635 184.694 120.354C185.262 120.892 185.801 121.533 185.801 122.611V137.9C185.801 142.356 184.549 143.506 182.364 144.118V145.297H191.596V144.118C189.427 143.506 188.16 142.37 188.16 137.9V123.484L210.045 145.486H211.604V124.081H211.618Z" fill="white"></path>
      <path d="M104.534 74.995C72.6305 74.995 46.7695 100.856 46.7695 132.76C46.7695 164.664 72.6305 190.525 104.534 190.525C136.438 190.525 162.299 164.664 162.299 132.76C162.299 100.856 136.424 74.995 104.534 74.995ZM144.316 172.541C133.686 183.171 119.562 189.025 104.534 189.025C89.5071 189.025 75.3826 183.171 64.7528 172.541C54.123 161.912 48.2693 147.787 48.2693 132.76C48.2693 117.733 54.123 103.608 64.7528 92.9782C75.3826 82.3485 89.5071 76.4948 104.534 76.4948C119.562 76.4948 133.686 82.3485 144.316 92.9782C154.946 103.608 160.799 117.733 160.799 132.76C160.785 147.787 154.931 161.912 144.316 172.541Z" fill="white"></path>
      <path d="M104.535 78.5043C74.5676 78.5043 50.2793 102.793 50.2793 132.76C50.2793 162.727 74.5676 187.015 104.535 187.015C134.502 187.015 158.79 162.727 158.79 132.76C158.79 102.793 134.488 78.5043 104.535 78.5043ZM142.467 170.692C132.332 180.827 118.863 186.404 104.535 186.404C90.2065 186.404 76.7372 180.827 66.6026 170.692C56.4679 160.557 50.8763 147.088 50.8763 132.76C50.8763 118.431 56.4533 104.962 66.588 94.8275C76.7227 84.6928 90.2065 79.1013 104.535 79.1013C118.863 79.1013 132.332 84.6783 142.467 94.813C152.602 104.948 158.179 118.417 158.179 132.745C158.179 147.088 152.602 160.557 142.467 170.692Z" fill="white"></path>
      <path d="M104.535 91.3474C81.7023 91.3474 63.1221 109.928 63.1221 132.76C63.1221 155.592 81.7023 174.172 104.535 174.172C127.367 174.172 145.947 155.592 145.947 132.76C145.947 109.928 127.367 91.3474 104.535 91.3474ZM104.535 173.575C81.9936 173.575 63.7191 155.301 63.7191 132.76C63.7191 110.219 81.9936 91.9444 104.535 91.9444C127.075 91.9444 145.35 110.219 145.35 132.76C145.35 155.301 127.075 173.575 104.535 173.575Z" fill="white"></path>
      <path d="M104.534 93.9539C83.1293 93.9539 65.7285 111.369 65.7285 132.76C65.7285 154.15 83.1439 171.566 104.534 171.566C125.925 171.566 143.34 154.15 143.34 132.76C143.34 111.369 125.925 93.9539 104.534 93.9539ZM109.427 102.429C109.806 103.215 110.155 103.957 110.155 104.86C110.155 105.006 110.141 105.152 110.126 105.268C110.126 105.312 110.111 105.355 110.097 105.399C110.082 105.472 110.068 105.559 110.039 105.632C109.966 105.85 109.864 106.04 109.718 106.2C109.442 106.506 109.019 106.666 108.481 106.666C108.044 106.666 107.68 106.579 107.403 106.389C107.432 106.316 107.476 106.244 107.505 106.156C107.534 106.098 107.549 106.025 107.563 105.967C107.578 105.938 107.578 105.909 107.592 105.88L107.636 105.705C107.651 105.647 107.651 105.588 107.665 105.545C107.665 105.501 107.68 105.443 107.68 105.399C107.694 105.283 107.694 105.166 107.694 105.05C107.651 104.292 107.345 103.593 106.923 102.909C107.272 101.54 107.986 100.201 108.728 99.2396C108.612 100.594 109.005 101.555 109.427 102.429ZM110.417 103.317C110.577 102.807 110.708 102.312 110.708 101.861C111.568 102.793 111.961 103.695 111.961 104.671C111.961 104.831 111.946 104.962 111.932 105.108C111.932 105.152 111.917 105.181 111.917 105.224C111.903 105.341 111.888 105.443 111.859 105.545C111.844 105.588 111.83 105.632 111.815 105.69C111.786 105.763 111.771 105.821 111.742 105.894C111.713 105.952 111.699 105.996 111.67 106.04C111.655 106.069 111.626 106.113 111.611 106.142C111.553 106.244 111.48 106.331 111.407 106.404L111.364 106.447C111.087 106.71 110.738 106.841 110.286 106.841C110.199 106.841 110.126 106.826 110.053 106.812C110.213 106.651 110.33 106.447 110.432 106.229C110.505 106.083 110.548 105.923 110.592 105.763L110.636 105.588C110.65 105.53 110.65 105.457 110.665 105.399C110.679 105.253 110.694 105.093 110.694 104.933C110.738 104.336 110.607 103.812 110.417 103.317ZM125.372 154.049C126.653 154.049 127.905 153.553 128.735 152.723C129.289 152.17 129.624 151.515 129.711 150.787C129.857 150.845 130.002 150.932 130.133 151.049C130.148 151.063 130.162 151.063 130.177 151.063C130.192 151.063 130.206 151.049 130.206 151.034C130.483 150.204 130.279 149.403 129.565 148.428C128.866 147.467 127.454 146.884 125.794 146.855H125.678C123.726 146.855 122.751 147.714 122.27 148.428C121.6 149.418 121.615 150.597 121.906 151.253C121.906 151.267 121.921 151.282 121.95 151.282C121.964 151.282 121.979 151.282 121.994 151.267C122.139 151.093 122.358 150.889 122.576 150.758C123.654 151.675 125.328 151.806 126.609 151.617C127.265 151.515 127.76 151.267 127.993 150.903C128.153 150.656 128.182 150.364 128.095 150.044C127.905 149.374 126.77 149.141 126.042 149.272C125.357 149.389 124.775 149.651 123.785 150.656C123.755 150.685 123.712 150.699 123.683 150.685C123.654 150.67 123.654 150.656 123.654 150.627C123.61 150.015 123.639 149.258 123.654 148.894C123.988 148.384 124.964 147.845 125.969 147.845H125.998C126.842 147.86 127.541 148.02 127.891 148.297C128.138 148.501 128.473 149.185 128.692 149.724C129.012 150.568 128.954 151.078 128.444 151.791C127.978 152.432 126.784 153.131 125.226 153.131C123.755 153.131 122.692 152.811 121.702 152.068C121.076 151.34 121.018 150.641 121.382 147.933C121.833 144.598 121.731 140.55 121.469 137.682C121.207 134.857 120.654 131.741 120.246 129.891C120.086 129.163 119.955 128.581 119.94 128.406C119.955 127.576 120.29 126.819 120.872 126.236C121.557 125.581 122.503 125.246 123.61 125.261C125.488 125.29 126.609 125.901 126.944 127.066C126.988 127.227 127.003 127.925 127.032 128.741C127.105 130.779 127.206 134.187 127.774 138.249C128.648 144.525 129.682 146.841 130.366 148.37C130.774 149.272 131.036 149.869 131.109 150.874C131.167 151.85 130.876 152.68 130.221 153.379C129.012 154.646 126.609 155.344 123.639 155.286C122.911 155.272 122.227 155.243 121.557 155.199C121.615 154.835 121.673 154.471 121.731 154.092C121.746 153.99 121.761 153.83 121.688 153.772C121.615 153.714 121.455 153.757 121.353 153.786C120.421 154.15 119.576 154.529 118.805 154.951C117.276 154.777 115.878 154.558 114.494 154.34C111.67 153.888 109.005 153.481 105.394 153.481C100.166 153.481 95.6521 154.092 91.9681 154.718C90.7303 153.757 89.3324 153.219 87.8472 152.913C88.1967 152.432 88.4296 151.879 88.5461 151.224C88.6917 150.408 88.5607 149.243 88.4005 147.612C88.1384 145.035 88.0656 142.05 88.5316 137.769C88.9684 133.765 89.4053 131.26 89.6819 130.037C89.7402 129.804 89.7838 129.615 89.8421 129.454C91.7788 129.236 93.6135 128.959 95.39 128.683C98.3314 128.231 101.113 127.809 103.53 127.809C108.058 127.809 111.48 128.289 114.509 128.726C116.329 128.988 117.916 129.207 119.489 129.294C119.533 129.498 119.591 129.731 119.664 130.008C120.159 131.711 120.596 134.944 120.829 137.725C121.062 140.55 121.091 144.569 120.639 147.845C120.173 151.224 120.348 151.704 121.207 152.636C122.241 153.743 123.901 154.005 125.081 154.034L125.372 154.049ZM133.584 118.941C135.943 120.907 137.225 123.441 137.196 125.916C137.187 127.326 136.745 128.698 135.929 129.848C135.608 130.11 135.317 130.401 135.04 130.692C135.448 128.391 135.536 124.868 135.04 123.106C135.026 123.047 134.968 123.018 134.924 123.033C134.866 123.047 134.837 123.091 134.851 123.149C135.099 124.562 135.186 127.11 134.225 131.304C133.905 130.139 133.41 129.061 132.871 128.086C132.536 126.207 132.9 124.474 133.235 122.887C133.497 121.577 133.701 120.135 133.584 118.941ZM136.409 138.963C136.38 138.919 136.322 138.919 136.278 138.948C134.633 140.07 132.594 142.516 131.342 144.423C131.924 143.229 132.332 141.817 132.318 140.259C132.318 140.172 132.318 140.084 132.303 139.997C132.507 139.691 132.725 139.414 132.987 139.152C133.512 138.628 134.545 138.002 135.652 137.361C136.948 136.589 138.404 135.73 139.409 134.784C139.132 136.75 138.317 140.739 135.929 143.142C135.841 143.171 135.754 143.2 135.667 143.215C134.342 143.593 133.089 143.957 132.099 144.438C133.846 141.904 134.851 140.667 136.409 139.109C136.424 139.087 136.431 139.062 136.431 139.036C136.431 139.01 136.424 138.985 136.409 138.963ZM137.443 135.585C136.773 136.036 136.06 136.458 135.375 136.866C135.244 136.939 135.128 137.012 134.997 137.099C134.851 137.157 134.72 137.216 134.56 137.274C135.361 135.279 136.22 133.619 137.414 131.77C137.443 131.726 137.429 131.668 137.385 131.639C137.341 131.609 137.283 131.609 137.254 131.653C136.351 132.687 135.303 134.027 134.123 136.91C134.123 136.881 134.109 136.866 134.109 136.837C134.647 135.323 134.706 133.823 134.458 132.396C135.113 131.071 136.307 130.182 137.647 129.163C138.302 128.668 139.001 127.882 139.584 127.299C139.875 130.59 139.758 133.502 137.443 135.585ZM132.638 138.715L132.609 138.745C132.536 138.817 132.463 138.905 132.39 138.992C132.449 136.706 132.186 132.876 131.371 130.707C131.362 130.685 131.345 130.666 131.324 130.656C131.302 130.645 131.278 130.642 131.255 130.648C131.211 130.663 131.167 130.707 131.182 130.765C131.589 132.993 131.721 134.784 131.75 137.23C131.313 136.08 130.628 134.988 129.711 133.925C129.478 131.959 129.696 130.081 129.944 128.231C130.075 127.183 130.206 126.178 130.25 125.202C132.288 127.634 136.118 133.546 132.638 138.715ZM131.75 140.259C131.779 142.443 130.905 144.351 129.929 145.647C129.784 145.21 129.638 144.729 129.493 144.161C129.696 141.832 129.711 139.298 129.405 138.177C129.391 138.133 129.347 138.089 129.289 138.104C129.245 138.104 129.201 138.148 129.201 138.206C129.245 139.939 129.201 141.293 129.099 142.501C128.852 141.322 128.59 139.895 128.357 138.162C128.255 137.405 128.168 136.677 128.08 135.978C128.313 135.104 128.488 134.26 128.473 133.43C130.541 135.235 131.735 137.813 131.75 140.259ZM119.314 156.67C119.271 156.64 119.212 156.64 119.183 156.67C118.164 157.703 116.358 159.655 114.727 161.751C115.193 160.703 115.543 159.465 115.718 157.98C117.028 156.451 118.877 155.213 121.236 154.296C120.712 157.805 119.358 160.499 117.145 162.465C116.387 162.421 115.601 162.421 114.829 162.552C115.557 161.577 116.358 160.587 117.13 159.625C117.945 158.606 118.717 157.645 119.329 156.801C119.358 156.757 119.358 156.699 119.314 156.67ZM112.179 160.47C112.136 160.455 112.077 160.47 112.048 160.528C111.247 162.407 110.024 164.125 108.306 165.77C108.015 160.805 110.723 159.13 113.592 157.208C114.145 156.83 114.727 156.451 115.281 156.043C115.193 159.596 114.16 164.693 108.859 166.236C110.519 164.11 111.538 162.771 112.237 160.587C112.252 160.543 112.237 160.485 112.179 160.47ZM108.422 154.194C109.951 154.296 111.349 154.485 112.718 154.689L112.995 156.961C111.335 158.009 109.689 159.13 108.684 160.921L108.422 154.194ZM121.397 155.781C122.095 155.825 122.824 155.854 123.595 155.869H123.712C122.867 156.553 121.921 157.252 120.785 157.98C121.032 157.296 121.236 156.553 121.397 155.781ZM124.454 155.854C125.488 155.825 126.449 155.708 127.294 155.505C127.003 155.927 126.682 156.32 126.333 156.713C124.804 156.917 123.406 157.281 122.154 157.82C123.027 157.165 123.814 156.509 124.454 155.854ZM103.457 154.107C103.734 154.092 104.01 154.092 104.302 154.092L104.418 163.237C104.418 163.295 104.462 163.339 104.52 163.339C104.578 163.339 104.622 163.295 104.622 163.237L104.738 154.078H105.583L105.379 160.543C105.379 160.601 105.423 160.645 105.481 160.645C105.539 160.645 105.583 160.601 105.583 160.557L105.961 154.078C106.238 154.078 106.5 154.078 106.762 154.092L106.078 164.955H102.976L102.292 154.15C102.554 154.136 102.802 154.121 103.064 154.121L103.428 160.776C103.428 160.834 103.472 160.878 103.53 160.878C103.588 160.878 103.632 160.834 103.632 160.776L103.457 154.107ZM103.355 165.435H105.699C106.544 165.435 106.704 165.523 106.835 165.596C107.039 165.712 107.097 165.829 107.097 166.134C107.097 166.44 107.039 166.557 106.835 166.673C106.719 166.746 106.559 166.833 105.787 166.833H103.297C102.525 166.833 102.365 166.731 102.234 166.673C102.03 166.557 101.972 166.44 101.972 166.134C101.972 165.829 102.03 165.712 102.234 165.596C102.365 165.523 102.51 165.435 103.355 165.435ZM96.7733 160.223C97.3412 161.082 98.9284 163.834 100.006 166.032C99.9768 166.018 99.9622 166.018 99.9331 166.003C98.9284 164.97 97.8945 164.3 96.8752 163.877C94.3852 161.271 94.2105 157.922 94.2251 156.043C94.8221 156.597 95.4919 157.106 96.1472 157.601C98.6517 159.509 101.244 161.227 100.749 166.018C100.574 165.668 100.341 165.275 100.02 164.737C99.8457 164.445 99.6419 164.096 99.4089 163.688C98.7973 162.625 97.6615 160.63 96.9043 160.091C96.8607 160.062 96.817 160.062 96.7733 160.106C96.7587 160.135 96.7442 160.193 96.7733 160.223ZM89.4781 160.412C90.4537 161.489 91.837 162.407 93.4679 163.106C92.8417 163.062 92.2156 163.047 91.6186 163.033C90.9488 163.018 90.2935 163.004 89.6819 162.931C87.8763 162.028 86.4784 160.688 85.4737 158.868C88.6917 158.461 91.5603 158.708 94.327 160.63C94.6473 161.591 95.0842 162.45 95.6375 163.222C92.9873 162.48 90.9779 161.227 89.6237 160.266C89.58 160.237 89.5217 160.237 89.4926 160.281C89.4489 160.31 89.4489 160.368 89.4781 160.412ZM75.4118 147.336C76.0234 147.773 76.7951 148.53 77.5378 149.491C77.3921 150.015 77.3193 150.539 77.363 151.209C77.3776 151.515 77.4213 151.821 77.4941 152.126C77.3193 152.112 77.1592 152.112 76.9844 152.097C76.0816 151.617 75.3099 150.874 74.5527 149.797C74.1595 149.243 73.8101 148.617 73.446 147.947C72.9073 146.972 72.2957 145.894 71.4511 144.875C71.8734 144.948 72.3394 145.006 72.8053 145.064C74.7857 145.326 77.0427 145.632 78.5279 146.928C78.3823 147.277 78.2513 147.598 78.1348 147.889C77.9746 148.268 77.8435 148.603 77.7271 148.923C77.0281 148.137 76.2855 147.54 75.5283 147.146C75.4846 147.117 75.4264 147.132 75.3972 147.19C75.3536 147.248 75.3681 147.307 75.4118 147.336ZM79.4599 138.599C79.4016 138.584 79.3579 138.613 79.3434 138.657C78.7464 140.332 78.0911 142.662 78.295 146.011C75.1351 140.987 78.1785 136.298 80.6248 133.677C80.7267 134.536 80.9306 135.41 81.1344 136.327C81.0325 137.041 80.916 137.798 80.7704 138.584C80.086 142.152 79.4307 144.409 78.8628 145.967C78.659 143.856 78.8628 141.424 79.5181 138.715C79.5472 138.672 79.5181 138.613 79.4599 138.599ZM79.6055 133.983C78.6881 135.046 78.0037 136.08 77.5086 137.055L77.465 137.099C77.8727 134.726 78.2513 131.173 77.9746 129.789C77.96 129.731 77.9164 129.702 77.8581 129.702C77.7999 129.717 77.7707 129.76 77.7707 129.818C77.9018 131.042 77.5232 134.012 76.9116 136.75C76.8243 136.633 76.7369 136.517 76.6641 136.4C76.4165 135.585 76.0379 134.828 75.5429 134.143C75.3099 133.168 75.4555 132.236 75.8632 130.998C76.0962 130.284 76.3437 129.979 76.6495 128.959C77.0136 127.78 77.4504 126.134 77.7125 124.795C77.7707 124.911 77.8144 125.028 77.8727 125.144C79.0813 127.78 80.5665 130.998 79.6055 133.983ZM75.339 130.838C75.0623 131.682 74.8876 132.41 74.8876 133.095C73.8683 130.75 73.3441 128.406 73.1402 125.45C73.1402 125.392 73.0966 125.363 73.0383 125.363C72.9946 125.363 72.9364 125.406 72.9364 125.45C72.6306 127.838 73.2567 130.576 73.9994 132.541C73.5942 132.224 73.1659 131.936 72.718 131.682C69.8785 127.518 71.9608 121.868 73.1548 119.436C73.4169 120.324 73.7664 121.751 74.1304 122.698C74.9458 124.809 75.805 127.023 75.7904 129.687C75.6448 130.095 75.4846 130.386 75.339 130.838ZM76.4893 140.026C75.3827 137.915 73.2422 134.667 71.5967 133.313C71.553 133.284 71.4948 133.284 71.4657 133.313C71.422 133.357 71.422 133.415 71.4657 133.444C73.0674 135.366 74.3051 137.376 75.7904 140.04C74.7711 138.905 73.5771 138.133 72.485 137.434C71.9753 137.114 71.4657 136.793 70.9997 136.458C69.9076 134.944 69.529 133.284 69.5145 130.881C74.5672 132.469 76.7806 135.366 76.4893 140.026ZM72.1792 137.929C73.6936 138.905 75.339 139.953 76.3874 141.875C76.4311 142.895 76.6641 143.812 76.9699 144.613L76.9553 144.598C75.9215 143.375 74.8439 142.108 72.3248 140.011C72.2811 139.982 72.2229 139.982 72.1937 140.011C72.1501 140.055 72.1501 140.113 72.1937 140.142C72.5141 140.536 73.0383 141.103 73.6499 141.773C74.6401 142.851 75.8486 144.161 76.6932 145.283C75.9215 145.02 75.0915 144.846 74.2906 144.715C73.3441 144.278 72.3976 143.637 71.6113 142.734C70.1115 141.031 69.2524 138.482 69.4417 135.701C70.1115 136.458 71.2181 137.318 72.1792 137.929ZM78.6735 148.137C79.3288 146.535 80.3335 144.118 81.3674 138.701C82.1828 134.434 82.1683 131.042 82.1537 129.018C82.1537 128.042 82.1391 127.256 82.2411 126.994C82.8527 125.363 84.7456 124.809 86.2163 125.101C88.7937 125.625 89.4198 127.518 89.4781 128.26C89.5072 128.697 89.4053 129.134 89.2014 130.022C88.9102 131.245 88.4442 133.75 87.9637 137.74C87.4395 142.035 87.4686 145.02 87.7016 147.612C87.8472 149.112 87.9491 150.306 87.8181 151.034C87.687 151.733 87.3958 152.316 86.9444 152.767C86.2309 152.665 85.5174 152.607 84.7893 152.578C84.6728 152.563 84.5418 152.607 84.4981 152.709C84.4398 152.825 84.4981 152.956 84.6 153.102C84.7165 153.248 84.8184 153.408 84.9204 153.583C84.6728 153.612 84.4107 153.641 84.134 153.641H84.0612C82.7507 153.641 81.3237 152.986 80.6393 152.068C80.1442 151.413 80.086 150.947 80.3918 150.044C80.552 149.564 80.916 148.952 81.2072 148.69C81.5567 148.37 82.2848 148.166 83.1293 148.166C84.3816 148.166 85.4154 148.661 85.7649 149.127C85.7358 149.666 85.6921 150.117 85.6193 150.685C85.6193 150.714 85.6047 150.729 85.5902 150.743C85.5611 150.758 85.5319 150.743 85.5028 150.714C84.8039 150.088 83.5225 149.68 82.7362 149.68H82.6925C82.0518 149.695 81.4984 149.884 81.2218 150.175C81.0616 150.35 80.9742 150.568 80.9888 150.816C81.0179 151.413 81.382 152.097 82.9255 152.097H83.0128C84.4835 152.068 85.7795 151.675 86.3328 151.078C86.5512 151.194 86.7988 151.355 87.0463 151.544C87.0609 151.559 87.0754 151.559 87.09 151.559C87.1046 151.559 87.1191 151.544 87.1191 151.529C87.3667 150.845 87.3375 149.738 86.6823 148.821C86.2018 148.137 85.2116 147.336 83.2749 147.336H83.1439C81.6732 147.365 80.2899 147.933 79.4162 148.879C78.2367 150.146 78.6153 152.476 79.3142 153.131C79.3288 153.146 79.3434 153.146 79.3579 153.146C79.3725 153.146 79.3871 153.131 79.3871 153.117C79.4599 152.956 79.5472 152.796 79.6928 152.636C80.5374 153.801 81.9644 154.442 83.7991 154.442H83.9448C84.4253 154.427 84.8767 154.383 85.299 154.281C85.3863 154.471 85.4883 154.66 85.5902 154.864C85.7358 155.155 85.896 155.476 86.0707 155.796C85.197 155.941 84.4544 156.029 83.8865 156.043C81.0616 156.102 78.1348 154.616 77.96 151.209C77.9018 150.015 78.1785 149.345 78.6735 148.137ZM85.3281 153.146C88.4005 153.335 91.6186 154.034 93.73 157.601C93.7882 158.388 93.9193 159.13 94.094 159.829C93.861 159.684 93.6426 159.567 93.4096 159.436C90.7886 156.233 89.3179 155.257 87.9782 154.864C87.9551 154.858 87.9305 154.861 87.9091 154.871C87.8877 154.882 87.8708 154.9 87.8617 154.922C87.8472 154.966 87.8618 155.024 87.9054 155.053C88.8956 155.621 90.5702 156.801 92.1137 158.868C90.8614 158.417 89.5945 158.228 88.3568 158.184C87.3375 156.99 86.6677 155.694 86.1144 154.573C85.8377 154.034 85.5902 153.553 85.3281 153.146ZM96.0598 156.961L96.3365 154.66C97.6907 154.485 99.1177 154.34 100.617 154.238L100.355 160.892C99.3943 159.261 97.8654 158.213 96.4529 157.237C96.3219 157.15 96.1908 157.048 96.0598 156.961ZM101.447 120.164C101.433 119.888 101.579 119.669 101.884 119.669C102.161 119.669 102.307 119.815 102.321 120.15L102.54 127.314L101.812 127.358L101.447 120.164ZM104.01 120.295C103.996 119.786 104.2 119.64 104.534 119.64C104.884 119.64 105.059 119.888 105.03 120.324L104.942 127.314C104.666 127.314 104.374 127.299 104.083 127.299L104.01 120.295ZM106.529 127.358L106.748 120.15C106.762 119.829 106.923 119.64 107.185 119.64C107.49 119.64 107.621 119.902 107.607 120.179L107.243 127.416C107.01 127.387 106.777 127.372 106.529 127.358ZM107.651 127.43L108.073 119.946C108.102 119.305 107.927 118.927 107.214 118.927C106.588 118.927 106.311 119.232 106.296 119.931L106.122 127.343C105.874 127.328 105.612 127.328 105.35 127.314L105.481 119.888C105.481 119.596 105.408 119.305 105.233 119.116C105.059 118.941 104.811 118.897 104.52 118.897C104.243 118.897 103.967 118.956 103.792 119.13C103.617 119.32 103.559 119.596 103.559 119.888L103.69 127.285H103.515C103.326 127.285 103.137 127.285 102.933 127.299L102.758 119.931C102.743 119.232 102.496 118.956 101.884 118.956C101.637 118.956 101.346 119.028 101.2 119.189C101.025 119.378 100.967 119.64 100.982 119.946L101.404 127.387C101.142 127.401 100.894 127.43 100.632 127.459L100.035 117.98H109.019L108.422 127.503C108.175 127.459 107.913 127.445 107.651 127.43ZM108.917 117.237C108.597 117.281 107.986 117.281 107.024 117.281H102.03C101.069 117.281 100.457 117.281 100.137 117.237C99.6273 117.165 99.4817 117.077 99.3798 116.888C99.2487 116.582 99.1905 116.364 99.1905 116.189H109.878C109.864 116.349 109.82 116.568 109.689 116.859C109.573 117.077 109.442 117.165 108.917 117.237ZM99.0594 115.548C98.6226 115.548 98.5352 115.243 98.5352 114.995V114.893C98.5352 114.646 98.7245 114.311 99.0594 114.311H110.068C110.374 114.311 110.534 114.5 110.534 114.893V115.01C110.534 115.315 110.301 115.563 110.01 115.563H99.0594V115.548ZM98.3459 111.151C98.6808 111.078 99.0303 111.063 99.2778 111.107L99.3652 111.486C99.4526 112.039 99.3361 112.316 98.9866 112.476L98.7973 112.549L98.3459 111.151ZM109.602 110.452C109.544 110.454 109.488 110.475 109.443 110.512C109.398 110.548 109.367 110.599 109.354 110.656L109.209 111.442C109.15 112.01 109.18 112.621 109.878 112.971L110.417 113.189C110.476 113.219 110.519 113.233 110.505 113.379L110.359 113.801L98.7245 113.816L98.5643 113.379C98.5352 113.233 98.5935 113.204 98.6517 113.189L99.205 112.971C99.9622 112.607 99.9477 111.923 99.8749 111.427L99.7001 110.714C99.671 110.597 99.5836 110.525 99.4671 110.525L97.9528 110.466C97.4868 110.452 97.4285 110.364 97.3849 110.219L97.2684 109.724H111.801L111.684 110.219C111.64 110.379 111.626 110.452 111.204 110.466L109.602 110.452ZM110.708 111.151L110.257 112.563L110.082 112.49C109.733 112.316 109.631 112.068 109.704 111.5L109.791 111.063C110.024 111.034 110.344 111.063 110.708 111.151ZM111.233 108.996H97.8217C95.7686 108.996 95.6812 108.952 95.4773 108.821C95.3317 108.734 95.2444 108.617 95.2444 108.253C95.2444 107.991 95.3317 107.802 95.4919 107.7C95.7103 107.569 96.2491 107.51 98.9138 107.51H110.141C112.791 107.51 113.344 107.554 113.563 107.7C113.737 107.802 113.81 107.991 113.81 108.253C113.81 108.617 113.723 108.748 113.577 108.821C113.373 108.937 113.286 108.996 111.233 108.996ZM98.7682 104.03C98.6202 104.481 98.5754 104.958 98.6371 105.428C98.6371 105.472 98.6517 105.516 98.6517 105.545C98.6663 105.647 98.6954 105.734 98.7245 105.821C98.7536 105.894 98.7682 105.952 98.7973 106.025C98.8992 106.258 99.0157 106.462 99.1759 106.637C99.0012 106.768 98.7536 106.855 98.4624 106.855C98.3168 106.855 98.0838 106.826 97.8654 106.724C97.7586 106.671 97.6604 106.603 97.5742 106.52C97.5596 106.52 97.5596 106.506 97.5596 106.506C97.5221 106.47 97.488 106.431 97.4577 106.389C97.4431 106.375 97.4431 106.36 97.4286 106.346C97.3994 106.302 97.3703 106.258 97.3266 106.2C97.3266 106.185 97.3121 106.185 97.3121 106.171C97.2829 106.113 97.2393 106.04 97.2247 105.952C97.2247 105.938 97.2101 105.923 97.2101 105.894C97.1956 105.836 97.1664 105.763 97.1519 105.69C97.1519 105.661 97.1373 105.632 97.1373 105.603C97.1228 105.53 97.1082 105.457 97.1082 105.385C97.1082 105.355 97.0936 105.326 97.0936 105.283C97.0791 105.166 97.0791 105.064 97.0791 104.933C97.0791 103.826 97.6178 102.487 98.4042 101.569C98.2294 102.618 98.5352 103.535 98.7682 104.03ZM100.05 98.5989C100.821 99.0212 101.491 99.7347 101.972 100.594C101.87 100.914 101.739 101.22 101.622 101.526C101.331 102.239 101.04 102.982 100.967 103.972C100.952 104.161 100.952 104.351 100.967 104.525V104.613C100.982 104.787 100.996 104.962 101.04 105.122V105.152C101.14 105.634 101.366 106.081 101.695 106.447L101.724 106.477C101.477 106.579 101.2 106.622 100.88 106.622C99.9622 106.622 99.438 105.938 99.307 105.181C99.2924 105.079 99.2778 104.962 99.2778 104.846C99.2778 104.176 99.438 103.826 99.7438 103.215L99.7729 103.157C100.705 101.162 100.807 99.7056 100.05 98.5989ZM106.995 105.035C106.995 105.181 106.981 105.297 106.981 105.428C106.981 105.472 106.966 105.516 106.966 105.559C106.952 105.632 106.937 105.705 106.923 105.763L106.879 105.894C106.864 105.952 106.835 105.996 106.821 106.054C106.806 106.098 106.791 106.142 106.762 106.171C106.515 106.622 106.078 106.826 105.394 106.826C104.782 106.826 104.36 106.593 104.098 106.113C104.054 106.04 104.025 105.952 103.996 105.865C103.996 105.85 103.981 105.821 103.981 105.807C103.952 105.734 103.937 105.647 103.923 105.559C103.908 105.516 103.908 105.457 103.894 105.399C103.879 105.326 103.865 105.268 103.865 105.195C103.85 105.064 103.85 104.919 103.85 104.758C103.85 104.001 104.112 103.142 104.36 102.312C104.52 101.788 104.68 101.278 104.753 100.841C104.899 101.045 105.073 101.278 105.263 101.54C105.991 102.53 106.995 103.856 106.995 105.035ZM106.486 102.268C106.224 101.904 105.932 101.54 105.641 101.147C105.263 100.652 104.869 100.157 104.476 99.6037C104.447 99.56 104.403 99.5454 104.36 99.56C104.316 99.5745 104.287 99.6182 104.287 99.6619C104.374 100.623 104.054 101.511 103.734 102.385C103.457 103.157 103.166 103.957 103.166 104.802C103.166 104.948 103.18 105.093 103.195 105.239C103.195 105.297 103.209 105.341 103.209 105.399L103.253 105.632C103.282 105.792 103.326 105.952 103.384 106.098C103.442 106.244 103.501 106.389 103.588 106.52C103.18 106.447 102.86 106.287 102.598 106.083C102.176 105.749 101.957 105.283 101.841 104.787V104.758C101.826 104.656 101.797 104.569 101.782 104.467C101.768 104.38 101.768 104.292 101.753 104.19V104.132C101.753 104.045 101.739 103.957 101.739 103.856C101.739 103.142 101.986 102.458 102.248 101.73C102.554 100.87 102.904 99.8949 102.904 98.73C102.904 97.2884 102.277 96.2837 101.666 95.6575C104.651 96.8079 106.194 99.1377 106.791 101.38C106.69 101.671 106.588 101.977 106.486 102.268ZM72.8927 112.986L93.8756 106.083C93.9193 106.069 93.9484 106.011 93.9484 105.967C93.9338 105.909 93.8901 105.88 93.8319 105.894L75.3972 109.462C76.533 108.049 77.7562 106.724 79.0813 105.486L94.5163 103.506C94.5745 103.506 94.6036 103.448 94.6036 103.404C94.6036 103.346 94.56 103.317 94.5163 103.302L82.5614 102.589C83.9156 101.599 85.3426 100.696 86.8279 99.8949L95.5647 101.06H95.5793C95.6229 101.06 95.6666 101.031 95.6812 100.987C95.6872 100.964 95.6846 100.939 95.6739 100.918C95.6632 100.896 95.6451 100.88 95.6229 100.87L89.8567 98.4387C91.1817 97.8709 92.5505 97.3758 93.9484 96.9681L97.2975 99.0794C97.3121 99.094 97.3266 99.094 97.3557 99.094C97.3849 99.094 97.414 99.0794 97.4286 99.0649C97.4577 99.0358 97.4577 98.9775 97.4286 98.9338L95.6375 96.5167C97.3557 96.0944 99.1322 95.7886 100.938 95.6284C101.782 96.4002 102.336 97.4923 102.336 98.4824C102.336 99.0358 102.277 99.5017 102.176 99.924C101.244 98.6135 99.9622 97.8126 98.9138 97.6379C98.8701 97.6233 98.8264 97.6524 98.8119 97.6961C98.7973 97.7398 98.7973 97.7835 98.8264 97.8126C99.7875 98.73 100.122 99.6182 99.9622 100.769C99.8457 101.642 99.5399 102.283 99.2342 102.909C99.1905 103.011 99.1468 103.098 99.1031 103.2C98.7828 102.53 98.6371 101.759 99.1468 100.477C99.1614 100.434 99.1468 100.39 99.1177 100.361C99.0885 100.332 99.0303 100.332 99.0012 100.346C97.5014 101.249 96.4529 103.739 96.4529 105.399C96.4529 106.185 96.6422 106.71 97.0208 107.03C95.7249 107.059 95.4628 107.132 95.2298 107.277C94.9094 107.481 94.7493 107.816 94.7493 108.253C94.7493 108.588 94.8075 109.01 95.2298 109.258C95.4919 109.403 95.6521 109.462 96.715 109.491L96.9189 110.335C97.05 110.772 97.3849 110.903 97.7635 110.947L98.3605 112.782C98.2003 112.884 98.011 113.087 98.0838 113.495C98.0838 113.51 98.0838 113.524 98.0984 113.539L98.3168 114.165V114.18C98.1421 114.383 98.0401 114.66 98.0401 114.922V115.039C98.0401 115.534 98.2877 115.898 98.6808 116.029C98.6226 116.364 98.7536 116.757 98.9284 117.15C99.074 117.412 99.2633 117.558 99.5254 117.66L100.152 127.532C99.4526 127.605 98.7245 127.692 97.9964 127.794L98.4624 121.417C98.4624 121.358 98.4333 121.315 98.375 121.315C98.3168 121.3 98.2731 121.344 98.2585 121.387L96.4966 128.013L95.3026 128.188C94.56 128.304 93.7882 128.421 93.0165 128.522L96.9043 117.165C96.9189 117.121 96.9043 117.063 96.8461 117.034C96.8225 117.026 96.797 117.026 96.7734 117.034C96.7498 117.042 96.7294 117.057 96.715 117.077L90.0605 128.479V128.362C90.0023 127.663 89.5509 126.149 87.9054 125.232L95.7249 113.583C95.754 113.539 95.7394 113.481 95.7103 113.451C95.6666 113.422 95.6084 113.422 95.5793 113.466L85.066 124.591C83.6535 124.707 82.2265 125.45 81.6732 126.935C81.5713 127.212 81.5421 127.649 81.5421 128.333L80.1734 129.775C79.853 128.552 79.3579 127.358 78.8628 126.251L94.0503 111.398C94.094 111.355 94.094 111.296 94.0503 111.267C94.0212 111.224 93.963 111.224 93.9193 111.253L75.3827 124.372C75.1351 123.659 74.873 122.975 74.6109 122.319C74.4071 121.795 74.2032 121.271 74.0285 120.761L93.1912 108.952C93.2115 108.938 93.2267 108.917 93.2346 108.894C93.2424 108.87 93.2425 108.845 93.2349 108.821C93.2058 108.777 93.1621 108.748 93.1038 108.777L70.1115 118.344C70.8978 116.466 71.8297 114.689 72.8927 112.986ZM68.1748 124.372L71.4802 122.334C70.9706 123.907 70.592 125.77 70.7376 127.649L67.3157 130.066C67.4613 128.129 67.7525 126.222 68.1748 124.372ZM68.4224 142.166C68.0146 140.579 67.6943 138.948 67.4904 137.288L69.0194 135.803C68.8883 137.682 69.1359 139.342 69.7329 140.783L68.4224 142.166ZM74.5818 154.995C73.3732 153.379 72.2957 151.66 71.3638 149.84L72.718 147.831L72.9364 148.224C73.315 148.894 73.6644 149.534 74.0867 150.117C74.6255 150.874 75.1643 151.471 75.7613 151.952C75.4624 151.909 75.1659 151.851 74.873 151.777C74.7711 151.748 74.6109 151.748 74.5381 151.835C74.4653 151.908 74.4944 152.054 74.5381 152.156C74.742 152.68 75.0186 153.175 75.3536 153.67L74.5818 154.995ZM75.0915 152.359C75.8923 152.52 76.7806 152.607 77.6251 152.665C78.1057 154.18 79.256 155.534 81.1053 156.189L80.7267 156.233C80.2316 156.276 79.722 156.335 79.2269 156.378C77.4213 155.403 75.8632 153.917 75.0915 152.359ZM78.8483 156.859C79.4307 156.815 79.9986 156.757 80.5665 156.699C81.2072 156.626 81.8625 156.568 82.5032 156.524C82.8963 156.582 83.2895 156.611 83.7263 156.611H83.9011C84.2651 156.611 84.6874 156.568 85.1533 156.509C85.6339 156.538 86.129 156.611 86.5949 156.699C86.8861 157.194 87.2211 157.689 87.6142 158.184C86.9881 158.198 86.3765 158.242 85.7649 158.315C84.9495 158.155 84.1195 158.082 82.9983 158.009C82.9546 158.009 82.8963 158.038 82.8963 158.097C82.8963 158.155 82.9255 158.198 82.9691 158.213L83.0856 158.242C83.7409 158.388 84.2942 158.519 84.8184 158.635C84.8184 158.679 84.833 158.708 84.8476 158.752C85.299 159.625 85.8232 160.397 86.4347 161.082C83.7991 160.936 81.149 159.829 78.8483 156.859ZM86.5512 165.45C84.7773 164.475 83.0872 163.355 81.4984 162.101L82.0809 160.412C83.3914 161.154 84.9932 161.635 86.9881 161.635C87.1337 161.781 87.2939 161.926 87.454 162.057L86.5512 165.45ZM93.6717 168.144C91.2545 167.605 89.2742 165.887 87.8763 163.135C89.0121 163.528 90.2789 163.557 91.604 163.586C94.1086 163.644 96.948 163.703 99.5836 166.44L99.5982 166.484C97.6324 166.688 94.5163 166.397 92.1573 165.377C92.1337 165.37 92.1082 165.37 92.0846 165.378C92.0611 165.385 92.0406 165.401 92.0263 165.421C91.9972 165.465 92.0117 165.523 92.0409 165.552C93.6572 166.95 96.351 167.299 98.608 167.299C98.8264 167.299 99.0303 167.299 99.2487 167.285C98.0838 167.998 95.9724 168.654 93.6717 168.144ZM102.146 169.134C101.768 169.265 100.457 169.716 99.7875 169.891C99.0157 170.095 98.6371 169.993 98.5352 169.702C98.4042 169.367 98.5206 169.134 99.1031 168.901C99.4526 168.77 101.782 167.853 102.321 167.634C102.111 168.105 102.05 168.628 102.146 169.134ZM104.534 170.488C103.326 170.488 102.612 169.731 102.612 168.464C102.612 168.086 102.714 167.722 102.904 167.416C103.53 167.314 105.394 167.285 106.18 167.416C106.369 167.736 106.471 168.1 106.471 168.479C106.457 169.746 105.758 170.488 104.534 170.488ZM110.519 169.702C110.417 169.993 110.039 170.095 109.267 169.891C108.612 169.716 107.301 169.265 106.908 169.134C106.937 168.974 106.952 168.799 106.952 168.624C106.952 168.275 106.864 167.94 106.719 167.634L109.937 168.901C110.548 169.134 110.65 169.367 110.519 169.702ZM110.184 167.125C112.296 165.974 114.829 165.334 117.698 165.217C117.756 165.217 117.785 165.173 117.8 165.115C117.8 165.057 117.756 165.013 117.712 165.013C115.703 164.78 113.359 165.101 111.087 165.887C112.048 165.319 112.995 164.533 113.795 163.397C115.63 162.742 117.509 163.018 119.329 163.295C120.159 163.426 121.222 163.455 122.066 163.484C119.722 166.149 115.266 169.658 110.184 167.125ZM124.163 164.474L123.683 162.902C125.823 162.305 127.512 161.154 128.837 159.815L129.187 160.747C127.629 162.13 125.94 163.368 124.163 164.474ZM119.343 162.727C118.892 162.654 118.411 162.596 117.945 162.538C120.071 161.14 123.522 159.698 126.595 158.956C126.653 158.941 126.682 158.897 126.668 158.839C126.653 158.781 126.609 158.752 126.551 158.752C124.178 159.028 121.44 159.931 119.096 161.154C119.46 160.659 119.78 160.135 120.071 159.582C122.605 157.703 126.158 156.757 130.381 156.961C127.731 161.111 123.959 163.091 119.343 162.727ZM129.624 156.538C128.765 156.524 127.935 156.553 127.148 156.626C127.439 156.276 127.716 155.898 127.964 155.519C130.366 154.573 132.128 153.408 133.249 152.024C133.279 151.981 133.279 151.923 133.235 151.893C133.191 151.864 133.133 151.85 133.104 151.893C132.58 152.374 131.837 152.898 130.934 153.422C131.502 152.68 131.75 151.806 131.691 150.83V150.787C132.216 150.685 132.74 150.612 133.264 150.539C134.065 150.423 134.997 150.175 135.783 149.971C134.764 152.825 132.9 155.81 129.624 156.538ZM135.259 153.903L134.851 153.233C135.434 152.287 135.958 151.136 136.395 149.753C136.409 149.705 136.41 149.653 136.397 149.604C136.384 149.556 136.358 149.511 136.322 149.476C136.286 149.441 136.242 149.415 136.193 149.403C136.145 149.39 136.094 149.39 136.045 149.403C135.477 149.578 134.895 149.695 134.283 149.797C135.303 149.185 136.191 148.413 136.919 147.569L138.026 149.185C137.225 150.83 136.293 152.403 135.259 153.903ZM132.245 150.102C132.041 150.132 131.822 150.175 131.619 150.219C131.531 149.651 131.356 149.17 131.138 148.675C132.652 147.831 134.443 146.579 135.288 145.617C135.302 145.596 135.31 145.571 135.31 145.545C135.31 145.519 135.302 145.493 135.288 145.472C135.244 145.428 135.186 145.428 135.142 145.472C134.196 146.389 132.871 147.219 130.891 148.122C130.687 147.671 130.454 147.146 130.192 146.462C130.672 145.923 131.284 145.472 132.114 145.05C133.104 144.54 134.371 144.103 135.769 143.71C136.759 143.433 137.953 143.04 138.928 142.676C138.433 145.181 136.031 148.792 132.245 150.102ZM140.778 141.599L138.797 139.545C139.351 138.133 139.729 136.589 139.948 135.046L141.637 136.633C141.462 138.337 141.171 139.982 140.778 141.599ZM141.68 129.411L140.02 128.289C139.991 127.853 139.948 127.401 139.889 126.935C139.875 126.833 139.86 126.659 139.758 126.629C139.656 126.6 139.584 126.644 139.511 126.717C139.278 126.979 139.045 127.227 138.797 127.459L137.691 126.717C137.72 126.455 137.734 126.193 137.749 125.916C137.763 124.664 137.487 123.047 136.38 121.329L140.792 123.921C141.215 125.712 141.52 127.532 141.68 129.411ZM115.223 106.651L136.497 113.51C137.419 115.042 138.232 116.638 138.928 118.286L115.951 109.083C115.927 109.075 115.901 109.076 115.878 109.083C115.854 109.091 115.834 109.106 115.82 109.127C115.79 109.17 115.82 109.229 115.863 109.258L133.104 119.393C133.177 120.455 132.929 121.577 132.682 122.756C132.652 122.916 132.609 123.091 132.58 123.266L115.426 111.704C115.383 111.675 115.324 111.69 115.295 111.719C115.266 111.762 115.266 111.821 115.31 111.85L129.74 125.421C129.696 126.295 129.58 127.197 129.464 128.144C129.405 128.639 129.332 129.134 129.274 129.644L127.571 127.882C127.556 127.401 127.556 127.154 127.527 126.994C127.308 125.843 126.26 124.999 124.571 124.766L113.708 113.51C113.679 113.466 113.606 113.466 113.577 113.495C113.533 113.524 113.533 113.583 113.563 113.626L121.513 125.159C121.134 125.334 120.8 125.567 120.523 125.843C119.926 126.411 119.562 127.154 119.445 127.984L112.616 116.83C112.602 116.809 112.581 116.794 112.558 116.786C112.534 116.778 112.509 116.778 112.485 116.786C112.441 116.815 112.412 116.859 112.441 116.917L116.883 128.493C116.154 128.406 115.412 128.304 114.611 128.188C114.145 128.115 113.664 128.057 113.169 127.984L110.971 120.732C110.956 120.688 110.912 120.645 110.854 120.659C110.81 120.674 110.767 120.718 110.767 120.761L111.422 127.751C110.636 127.649 109.82 127.561 108.961 127.489L109.587 117.587C109.849 117.485 110.039 117.339 110.199 117.048C110.344 116.684 110.476 116.291 110.417 115.941C110.796 115.781 111.058 115.403 111.058 114.966V114.893C111.058 114.558 110.971 114.296 110.796 114.107L111 113.524C111 113.51 111.014 113.495 111.014 113.481C111.087 113.073 110.898 112.869 110.738 112.767L111.335 110.947C111.757 110.918 112.063 110.787 112.194 110.321L112.398 109.491C113.446 109.476 113.592 109.418 113.854 109.258C114.276 109.01 114.334 108.588 114.334 108.253C114.334 107.816 114.174 107.481 113.854 107.277C113.621 107.132 113.359 107.059 111.99 107.03C112.412 106.666 112.601 106.025 112.601 105.079C112.601 103.55 111.801 101.948 110.505 100.9C110.476 100.87 110.432 100.87 110.388 100.885C110.359 100.9 110.33 100.943 110.33 100.987C110.388 101.497 110.272 102.006 110.082 102.516C110.039 102.429 109.995 102.327 109.951 102.239C109.413 101.103 108.859 99.924 109.325 98.1475C109.34 98.1038 109.325 98.0602 109.281 98.031C109.238 98.0019 109.194 98.0165 109.165 98.0456C108.524 98.6135 107.854 99.4435 107.316 100.405C106.5 98.3659 104.869 96.5167 102.321 95.5265C103.049 95.4828 103.792 95.4537 104.534 95.4537C105.627 95.4537 106.704 95.4974 107.767 95.5993L107.228 97.4049C107.214 97.4486 107.228 97.5068 107.272 97.5214C107.287 97.5359 107.301 97.5359 107.316 97.5359C107.345 97.5359 107.374 97.5214 107.389 97.5068L108.874 95.7158C109.777 95.8177 110.665 95.9488 111.538 96.1235L110.199 98.0456C110.17 98.0893 110.17 98.1475 110.213 98.1766C110.228 98.1912 110.257 98.2058 110.286 98.2058C110.301 98.2058 110.33 98.2058 110.344 98.1912L112.791 96.3856C113.708 96.5895 114.611 96.837 115.499 97.0991L112.5 99.6473C112.456 99.6765 112.456 99.7347 112.485 99.7784C112.5 99.8075 112.543 99.8221 112.572 99.8221C112.587 99.8221 112.601 99.8221 112.616 99.8075L117.407 97.7398C118.586 98.1766 119.722 98.6572 120.843 99.1959L113.752 102.021C113.708 102.035 113.679 102.094 113.694 102.137C113.708 102.181 113.752 102.21 113.795 102.21H113.81L123.115 100.39C124.585 101.235 125.998 102.181 127.338 103.229L115.048 104.03C114.99 104.03 114.96 104.074 114.96 104.132C114.96 104.19 115.004 104.234 115.048 104.234L129.696 105.224C131.138 106.535 132.478 107.962 133.686 109.491L115.281 106.462C115.237 106.447 115.179 106.491 115.164 106.535C115.15 106.579 115.179 106.637 115.223 106.651Z" fill="white"></path>
      <path d="M100.209 134.842C100.69 134.813 100.937 134.798 101.418 134.784C101.592 134.769 101.68 134.857 101.68 135.031V135.323C101.68 135.497 101.592 135.599 101.432 135.599C100.69 135.643 100.326 135.658 99.583 135.701C99.4083 135.716 99.3209 135.628 99.3209 135.454V132.265C99.3209 132.09 99.4083 131.988 99.5685 131.988C99.7141 131.973 99.7869 131.973 99.9325 131.973C100.093 131.959 100.18 132.046 100.18 132.221C100.195 133.269 100.195 133.794 100.209 134.842ZM104.082 135.57H103.733C103.529 135.57 103.456 135.512 103.384 135.323C102.903 134.027 102.655 133.386 102.204 132.09C102.16 131.959 102.233 131.842 102.364 131.842H102.787C102.976 131.842 103.063 131.901 103.121 132.09C103.442 133.007 103.602 133.473 103.937 134.391C104.257 133.473 104.417 133.007 104.738 132.075C104.796 131.886 104.883 131.828 105.073 131.828H105.437C105.568 131.828 105.655 131.944 105.597 132.075C105.145 133.371 104.912 134.027 104.432 135.337C104.359 135.512 104.272 135.57 104.082 135.57ZM107.024 135.585C106.835 135.57 106.733 135.57 106.543 135.556C106.427 135.556 106.369 135.425 106.427 135.323C106.878 134.653 107.097 134.332 107.519 133.663C107.14 133.022 106.951 132.702 106.587 132.061C106.529 131.959 106.602 131.842 106.704 131.842C106.907 131.857 107.009 131.857 107.199 131.872C107.402 131.886 107.475 131.93 107.577 132.119C107.796 132.498 107.898 132.687 108.116 133.066L108.655 132.163C108.757 131.988 108.829 131.944 109.033 131.959C109.223 131.973 109.31 131.973 109.499 131.988C109.616 131.988 109.674 132.119 109.616 132.221C109.237 132.818 109.048 133.124 108.655 133.735C109.077 134.449 109.295 134.798 109.732 135.497C109.791 135.599 109.732 135.716 109.616 135.716C109.412 135.701 109.31 135.701 109.092 135.687C108.873 135.672 108.8 135.628 108.698 135.439C108.436 134.988 108.305 134.769 108.058 134.318C107.796 134.74 107.665 134.959 107.402 135.381C107.315 135.556 107.242 135.585 107.024 135.585ZM93.3217 142.996C93.176 143.011 93.1032 143.026 92.9576 143.04C92.7538 143.069 92.6664 143.026 92.579 142.836C92.0257 141.613 91.749 141.016 91.2248 139.793C91.1666 139.662 91.2539 139.545 91.385 139.516C91.5597 139.487 91.6471 139.487 91.8218 139.458C92.0257 139.429 92.1131 139.473 92.1859 139.662C92.5499 140.536 92.7392 140.958 93.1178 141.832C93.4236 140.87 93.5838 140.39 93.875 139.429C93.9332 139.225 94.0206 139.167 94.2245 139.138C94.3846 139.123 94.4574 139.109 94.603 139.079C94.7341 139.065 94.836 139.167 94.7778 139.298C94.3409 140.652 94.1225 141.336 93.6566 142.691C93.6129 142.895 93.5401 142.967 93.3217 142.996ZM96.4815 142.603C96.3067 142.618 96.2048 142.53 96.2048 142.356C96.1902 141.089 96.1757 140.448 96.1757 139.181C96.1757 139.007 96.263 138.905 96.4378 138.89C97.2823 138.817 97.6901 138.788 98.5346 138.715C98.7093 138.701 98.7967 138.788 98.8113 138.963C98.8113 139.065 98.8113 139.123 98.8258 139.225C98.8258 139.4 98.7385 139.502 98.5783 139.516C97.9958 139.56 97.7046 139.589 97.1222 139.633C97.1222 139.895 97.1222 140.011 97.1367 140.273C97.5444 140.244 97.7483 140.23 98.156 140.186C98.3308 140.172 98.4181 140.259 98.4327 140.434V140.667C98.4327 140.841 98.3453 140.943 98.1706 140.958C97.7629 140.987 97.559 141.002 97.1513 141.045C97.1513 141.336 97.1658 141.467 97.1658 141.759C97.7629 141.715 98.0541 141.686 98.6511 141.642C98.8258 141.628 98.9278 141.715 98.9278 141.89C98.9278 141.992 98.9278 142.05 98.9423 142.152C98.9423 142.327 98.855 142.429 98.6802 142.443C97.7774 142.501 97.3406 142.545 96.4815 142.603ZM100.981 142.312C100.821 142.312 100.748 142.327 100.588 142.327C100.413 142.327 100.311 142.239 100.326 142.065C100.326 140.783 100.326 140.157 100.34 138.876C100.34 138.701 100.428 138.613 100.602 138.599C101.083 138.584 101.33 138.57 101.811 138.555C102.597 138.526 103.107 138.978 103.121 139.676C103.136 140.113 102.918 140.477 102.524 140.667C102.816 141.205 102.961 141.467 103.267 142.006C103.325 142.123 103.252 142.239 103.121 142.239C102.932 142.239 102.83 142.254 102.641 142.254C102.422 142.254 102.35 142.21 102.248 142.021C102 141.569 101.884 141.336 101.651 140.87C101.491 140.87 101.403 140.885 101.228 140.885V142.021C101.243 142.21 101.156 142.312 100.981 142.312ZM101.796 139.312C101.578 139.312 101.461 139.327 101.243 139.327V140.172C101.461 140.172 101.578 140.157 101.811 140.157C101.864 140.155 101.917 140.143 101.966 140.12C102.015 140.098 102.059 140.067 102.095 140.027C102.132 139.988 102.16 139.942 102.179 139.892C102.197 139.842 102.206 139.788 102.204 139.735C102.19 139.473 102.015 139.312 101.796 139.312ZM104.854 142.239C104.679 142.239 104.592 142.152 104.592 141.977C104.592 140.696 104.607 140.07 104.607 138.788C104.607 138.613 104.694 138.526 104.869 138.526H105.247C105.422 138.526 105.509 138.613 105.509 138.788C105.509 140.07 105.524 140.696 105.524 141.977C105.524 142.152 105.437 142.239 105.262 142.239H104.854ZM108.072 142.327C107.898 142.312 107.81 142.225 107.81 142.05C107.825 141.002 107.839 140.477 107.854 139.429C107.519 139.414 107.359 139.4 107.024 139.385C106.849 139.371 106.762 139.283 106.762 139.109V138.817C106.762 138.643 106.849 138.555 107.024 138.57C108.043 138.613 108.553 138.643 109.572 138.686C109.747 138.701 109.834 138.788 109.834 138.963V139.254C109.834 139.429 109.747 139.516 109.572 139.502C109.237 139.487 109.077 139.473 108.742 139.458C108.742 140.506 108.728 141.031 108.728 142.079C108.728 142.254 108.64 142.341 108.451 142.327H108.072ZM110.868 142.472C110.708 142.458 110.635 142.458 110.475 142.443C110.329 142.429 110.256 142.312 110.315 142.181C110.883 140.929 111.145 140.303 111.684 139.065C111.756 138.876 111.844 138.832 112.048 138.846C112.193 138.861 112.266 138.861 112.426 138.876C112.63 138.89 112.703 138.963 112.776 139.152C113.256 140.492 113.504 141.162 113.999 142.501C114.057 142.632 113.97 142.749 113.824 142.734C113.649 142.72 113.547 142.705 113.373 142.691C113.169 142.676 113.081 142.603 113.009 142.414C112.936 142.225 112.907 142.123 112.848 141.933C112.281 141.875 112.004 141.861 111.436 141.802L111.247 142.254C111.159 142.443 111.072 142.487 110.868 142.472ZM112.586 141.191C112.426 140.696 112.339 140.448 112.179 139.953C111.989 140.419 111.902 140.652 111.713 141.103C112.048 141.147 112.222 141.162 112.586 141.191ZM95.2001 149.418C95.0544 149.433 94.9816 149.447 94.836 149.462C94.6176 149.476 94.5302 149.433 94.4429 149.258C93.875 148.02 93.5983 147.394 93.0595 146.156C93.0013 146.025 93.0887 145.909 93.2343 145.894C93.409 145.88 93.5109 145.865 93.6857 145.85C93.8895 145.836 93.9769 145.88 94.0497 146.054C94.4283 146.943 94.6176 147.379 95.0108 148.253C95.3311 147.307 95.4913 146.826 95.7971 145.865C95.8553 145.661 95.9427 145.603 96.1465 145.574C96.3067 145.559 96.3795 145.545 96.5397 145.53C96.6853 145.516 96.7727 145.617 96.729 145.763C96.2776 147.103 96.0446 147.773 95.5641 149.127C95.5058 149.331 95.4185 149.389 95.2001 149.418ZM98.4618 149.127C98.2725 149.141 98.1851 149.054 98.1706 148.879C98.1415 147.612 98.1415 146.972 98.1123 145.69C98.1123 145.516 98.1997 145.414 98.3744 145.414C98.5346 145.399 98.6074 145.399 98.7676 145.384C98.9423 145.37 99.0443 145.457 99.0443 145.632L99.1171 148.821C99.1171 148.996 99.0297 149.098 98.8404 149.098C98.7093 149.112 98.622 149.127 98.4618 149.127ZM101.418 148.981C101.258 148.981 101.17 148.981 101.01 148.996C100.821 148.996 100.733 148.908 100.733 148.734C100.733 147.452 100.733 146.826 100.748 145.545C100.748 145.37 100.835 145.283 101.025 145.268C101.52 145.253 101.782 145.253 102.277 145.239C103.092 145.224 103.617 145.676 103.631 146.36C103.646 146.797 103.413 147.146 103.005 147.336C103.311 147.874 103.456 148.137 103.777 148.675C103.835 148.792 103.762 148.908 103.631 148.908C103.442 148.908 103.34 148.908 103.136 148.923C102.918 148.923 102.83 148.879 102.728 148.69C102.481 148.224 102.35 148.006 102.117 147.54C101.942 147.54 101.855 147.54 101.694 147.554V148.69C101.694 148.894 101.592 148.981 101.418 148.981ZM102.262 145.996C102.029 145.996 101.913 146.011 101.68 146.011V146.855C101.913 146.855 102.029 146.841 102.262 146.841C102.51 146.841 102.67 146.666 102.67 146.418C102.67 146.156 102.495 145.996 102.262 145.996ZM105.932 148.952C105.742 148.952 105.655 148.85 105.655 148.675C105.67 147.627 105.67 147.103 105.67 146.04C105.32 146.04 105.16 146.025 104.811 146.025C104.636 146.025 104.534 145.923 104.548 145.749V145.457C104.548 145.283 104.65 145.195 104.825 145.195C105.874 145.21 106.412 145.224 107.461 145.239C107.635 145.239 107.737 145.341 107.737 145.516V145.807C107.737 145.982 107.65 146.069 107.475 146.069C107.126 146.069 106.966 146.054 106.616 146.054V148.69C106.616 148.865 106.514 148.952 106.339 148.952H105.932ZM110.591 149.17C110.446 149.156 110.373 149.156 110.227 149.141C110.009 149.127 109.922 149.069 109.849 148.865C109.354 147.54 109.121 146.87 108.64 145.545C108.596 145.414 108.684 145.297 108.815 145.312C108.99 145.326 109.077 145.326 109.266 145.341C109.47 145.355 109.558 145.414 109.616 145.617C109.936 146.564 110.111 147.03 110.446 147.976C110.824 147.074 110.999 146.637 111.349 145.734C111.421 145.545 111.509 145.501 111.713 145.501C111.873 145.516 111.946 145.516 112.106 145.53C112.251 145.545 112.339 145.661 112.281 145.792C111.771 147.059 111.494 147.685 110.941 148.952C110.897 149.127 110.81 149.185 110.591 149.17ZM116.27 142.385C116.503 142.414 116.663 142.312 116.663 142.152C116.663 142.021 116.591 141.933 116.445 141.817C116.299 141.715 115.877 141.409 115.732 141.307C115.353 141.031 115.149 140.681 115.178 140.288C115.207 139.676 115.746 139.24 116.445 139.312C116.78 139.342 117.129 139.487 117.377 139.72C117.479 139.822 117.479 139.968 117.377 140.084C117.348 140.113 117.246 140.23 117.217 140.273C117.1 140.405 116.984 140.405 116.838 140.288C116.712 140.184 116.562 140.114 116.401 140.084C116.183 140.07 116.066 140.172 116.052 140.317C116.052 140.448 116.11 140.536 116.27 140.652C116.416 140.754 116.838 141.06 116.984 141.162C117.377 141.438 117.566 141.802 117.552 142.166C117.523 142.851 116.955 143.215 116.227 143.142C115.717 143.098 115.338 142.865 115.062 142.589C114.931 142.458 114.931 142.327 115.062 142.196C115.105 142.166 115.207 142.05 115.251 142.006C115.368 141.89 115.484 141.904 115.615 142.021C115.863 142.268 116.066 142.37 116.27 142.385ZM114.363 148.763C114.596 148.777 114.756 148.69 114.756 148.515C114.756 148.384 114.683 148.297 114.538 148.18C114.392 148.078 113.984 147.773 113.839 147.671C113.46 147.394 113.271 147.044 113.3 146.651C113.343 146.025 113.868 145.603 114.567 145.661C114.902 145.69 115.236 145.836 115.499 146.069C115.6 146.171 115.6 146.316 115.499 146.433C115.469 146.477 115.368 146.579 115.338 146.622C115.222 146.753 115.105 146.753 114.974 146.637C114.829 146.52 114.683 146.447 114.552 146.433C114.348 146.418 114.217 146.52 114.203 146.666C114.188 146.797 114.246 146.884 114.421 147.001C114.567 147.103 114.974 147.409 115.12 147.51C115.499 147.787 115.688 148.137 115.673 148.515C115.644 149.2 115.076 149.578 114.348 149.505C113.853 149.462 113.46 149.243 113.198 148.967C113.067 148.836 113.067 148.704 113.198 148.573C113.242 148.544 113.343 148.428 113.387 148.384C113.504 148.268 113.62 148.268 113.751 148.384C113.97 148.646 114.173 148.748 114.363 148.763ZM55.7388 138.133C55.7388 138.322 55.6369 138.424 55.4476 138.424H55.0253C54.836 138.424 54.7341 138.322 54.7341 138.133V135.352L54.3118 135.454C54.1371 135.497 54.0352 135.425 54.0352 135.235V134.915C54.0352 134.696 54.0934 134.595 54.3118 134.536L54.6613 134.42C54.8245 134.36 54.9972 134.331 55.1709 134.332H55.4476C55.6369 134.332 55.7388 134.434 55.7388 134.624V138.133ZM58.6802 138.512C57.6609 138.512 57.0785 137.944 57.0785 137.288C57.0785 136.866 57.3115 136.517 57.7337 136.313C57.3551 136.109 57.1513 135.789 57.1513 135.395C57.1513 134.784 57.7192 134.231 58.6802 134.231C59.6413 134.231 60.2092 134.769 60.2092 135.395C60.2092 135.789 60.0053 136.109 59.6413 136.313C60.0636 136.517 60.2965 136.881 60.2965 137.288C60.282 137.944 59.7141 138.512 58.6802 138.512ZM58.6802 136.735C58.2725 136.735 58.0541 136.968 58.0541 137.216C58.0541 137.478 58.2725 137.696 58.6802 137.696C59.0879 137.696 59.3064 137.463 59.3064 137.216C59.3064 136.968 59.0879 136.735 58.6802 136.735ZM58.1269 135.497C58.1269 135.73 58.3162 135.949 58.6802 135.949C59.0443 135.949 59.2336 135.73 59.2336 135.497C59.2336 135.264 59.0443 135.046 58.6802 135.046C58.3162 135.046 58.1269 135.25 58.1269 135.497ZM149.106 138.439L148.946 138.133C148.859 137.958 148.917 137.827 149.077 137.74C149.645 137.463 150.038 137.186 150.242 136.808C150.053 136.953 149.805 137.041 149.558 137.041C148.742 137.041 148.218 136.488 148.218 135.701C148.218 134.9 148.829 134.26 149.863 134.26C150.781 134.26 151.436 134.871 151.436 135.847C151.436 137.186 150.693 138.06 149.514 138.584C149.325 138.657 149.194 138.613 149.106 138.439ZM149.179 135.687C149.179 136.022 149.412 136.269 149.805 136.269C150.169 136.269 150.431 136.007 150.431 135.672C150.431 135.337 150.184 135.09 149.805 135.09C149.426 135.09 149.179 135.337 149.179 135.687ZM153.984 138.512C152.965 138.512 152.382 137.944 152.382 137.288C152.382 136.866 152.615 136.517 153.038 136.313C152.659 136.109 152.455 135.789 152.455 135.395C152.455 134.784 153.023 134.231 153.984 134.231C154.945 134.231 155.513 134.769 155.513 135.395C155.513 135.789 155.309 136.109 154.945 136.313C155.368 136.517 155.601 136.881 155.601 137.288C155.586 137.944 155.003 138.512 153.984 138.512ZM153.984 136.735C153.576 136.735 153.358 136.968 153.358 137.216C153.358 137.478 153.576 137.696 153.984 137.696C154.392 137.696 154.61 137.463 154.61 137.216C154.61 136.968 154.377 136.735 153.984 136.735ZM153.431 135.497C153.431 135.73 153.62 135.949 153.984 135.949C154.348 135.949 154.538 135.73 154.538 135.497C154.538 135.264 154.348 135.046 153.984 135.046C153.606 135.046 153.431 135.25 153.431 135.497ZM103.777 110.394L101.17 110.437C101.097 110.437 101.039 110.466 100.995 110.525C100.948 110.576 100.922 110.644 100.923 110.714C100.923 110.743 100.966 111.5 101.097 111.995C101.272 112.651 101.767 113.015 102.524 113.015C103.282 113.015 103.777 112.621 103.893 111.937C103.966 111.442 104.039 110.714 104.039 110.685C104.039 110.612 104.024 110.539 103.966 110.496C103.922 110.423 103.85 110.408 103.777 110.394ZM103.398 111.85C103.325 112.287 103.034 112.505 102.524 112.505C102 112.505 101.694 112.301 101.592 111.864C101.549 111.675 101.505 111.427 101.476 111.194C101.927 110.947 102.932 110.874 103.485 111.107C103.471 111.355 103.427 111.631 103.398 111.85ZM107.883 110.408H105.247C105.175 110.423 105.102 110.437 105.058 110.496C105.013 110.549 104.987 110.615 104.985 110.685L105.014 110.889C105.058 111.413 105.058 111.442 105.145 111.937C105.247 112.621 105.742 113.015 106.485 113.015H106.529C107.286 113 107.796 112.636 107.956 111.966C108.087 111.471 108.131 110.714 108.131 110.67C108.131 110.597 108.116 110.539 108.058 110.481C108.01 110.436 107.948 110.41 107.883 110.408ZM107.461 111.85C107.344 112.287 107.038 112.505 106.514 112.52C106.019 112.534 105.713 112.316 105.641 111.879C105.582 111.5 105.568 111.413 105.539 111.136C106.092 110.889 107.126 110.947 107.577 111.18C107.548 111.398 107.519 111.646 107.461 111.85ZM76.2558 166.688L76.4887 166.411C75.95 165.96 75.3675 165.45 74.8288 164.955L74.5812 165.217C74.8288 165.639 74.7851 166.149 73.9405 167.037L72.3824 168.683C71.3777 169.746 70.0526 169.935 68.9314 168.828C67.9121 167.809 68.0868 166.6 69.2081 165.523L71.1447 163.659C71.931 162.902 72.1058 162.931 72.5426 163.251L72.8047 163.004C72.1349 162.319 71.4505 161.518 70.8389 160.79L70.5623 161.023C70.8389 161.504 70.8244 161.679 70.0235 162.421L67.9704 164.314C66.7035 165.479 66.2667 167.387 68.0286 169.149C69.8051 170.925 71.6981 170.488 72.8775 169.221L74.4793 167.503C75.3238 166.6 75.8044 166.484 76.2558 166.688ZM84.017 171.901L84.1771 171.595C83.5219 171.245 82.8812 170.896 82.2405 170.503L82.0657 170.809C82.3861 171.173 82.4589 171.653 81.8328 172.716L80.464 175.002L79.168 168.974C79.0661 168.479 78.9787 168.362 78.8477 168.26C78.5273 168.027 77.8138 167.503 77.3333 167.125L77.1294 167.401C77.3333 167.605 77.3624 167.853 77.4644 168.639C77.508 168.857 77.5226 169.076 77.3333 169.338L75.2365 172.338C74.523 173.342 74.1152 173.488 73.6202 173.328L73.4017 173.604C73.9988 174.056 74.6103 174.522 75.2365 174.944L75.4403 174.653C75.1345 174.26 75.0909 173.866 75.8335 172.789L77.6828 170.095L79.2845 177.507L79.7068 177.74L82.4735 173.08C83.0996 172.003 83.5364 171.799 84.017 171.901ZM85.6769 172.716C86.1429 173.051 86.1866 173.211 85.7498 174.201L84.0752 178.002C83.6384 178.992 83.5073 179.079 82.954 178.963L82.8084 179.283C83.7257 179.706 84.6577 180.113 85.6041 180.492L85.7498 180.172C85.2838 179.837 85.2547 179.691 85.6769 178.686L87.2787 174.857C87.701 173.852 87.8466 173.779 88.3999 173.896L88.531 173.575C87.6136 173.211 86.7108 172.818 85.8226 172.41L85.6769 172.716ZM95.2583 175.949C95.8116 176.225 95.9573 176.604 95.4622 177.186L92.579 180.652L91.7053 176.123C91.6034 175.57 91.7781 175.206 92.2878 175.192L92.3897 174.857C91.4724 174.58 90.4531 174.26 89.4047 173.881L89.2736 174.216C89.6376 174.507 89.7104 174.813 89.9289 175.789L91.3704 182.574L91.8364 182.691L96.1902 177.492C96.8309 176.735 97.2532 176.444 97.6755 176.386L97.7192 176.036C96.9329 175.92 96.132 175.759 95.3166 175.585L95.2583 175.949ZM104.097 183.026C103.675 183.288 102.903 183.404 101.592 183.331C100.617 183.273 100.559 183.244 100.486 183.157C100.413 183.084 100.384 182.967 100.398 182.749C100.442 182.035 100.53 180.987 100.617 180.04C102.029 180.142 102.408 180.215 102.626 180.317C102.976 180.492 103.063 180.681 103.121 180.972L103.485 180.987L103.544 178.803L103.18 178.788C103.092 179.065 102.99 179.283 102.655 179.385C102.248 179.502 101.782 179.487 100.675 179.371C100.748 178.584 100.806 177.944 100.85 177.725C100.879 177.521 100.923 177.347 101.01 177.259C101.112 177.172 101.214 177.157 102.073 177.201C103.602 177.288 104.039 177.434 104.912 178.147L105.175 177.958L104.665 176.575C103.835 176.575 102.845 176.56 101.855 176.488C100.661 176.415 99.5539 176.313 98.6657 176.182L98.6074 176.546C99.1462 176.706 99.2336 176.866 99.1462 177.944L98.753 182.065C98.6511 183.142 98.5201 183.259 97.9667 183.331L97.9376 183.681C98.8695 183.797 100.398 183.943 101.403 184.001C102.466 184.059 104.257 184.118 105 184.103L105.495 182.181L105.175 182.05C104.811 182.429 104.505 182.778 104.097 183.026ZM115.047 182.472C114.261 182.603 113.547 181.497 112.324 180.215C113.606 179.764 114.232 178.905 114.101 177.871C113.926 176.546 112.834 175.789 110.548 176.153C109.237 176.371 107.766 176.458 106.907 176.517L106.922 176.881C107.475 176.939 107.606 177.07 107.723 178.147L108.116 182.268C108.232 183.346 108.116 183.477 107.577 183.652L107.606 184.001C108.305 183.957 109.616 183.841 110.664 183.724L110.635 183.375C110.096 183.317 109.965 183.2 109.849 182.123L109.689 180.783C109.951 180.739 110.198 180.71 110.475 180.667C112.31 182.662 113.111 183.55 114.596 183.331C115.236 183.244 115.644 182.865 115.848 182.37L115.542 182.166C115.397 182.341 115.28 182.443 115.047 182.472ZM110.912 179.924C110.446 180.011 109.994 180.04 109.601 180.07L109.252 177.055C109.558 177.012 109.922 176.953 110.256 176.91C111.611 176.735 112.266 177.245 112.426 178.22C112.586 179.138 112.077 179.735 110.912 179.924ZM119.78 176.983C118.178 177.172 117.275 177.318 116.969 176.4C116.809 175.92 117.1 175.264 118.105 174.929C119.299 174.536 120.246 174.9 121.265 175.541L121.527 175.323L120.435 173.706L120.246 173.721C120.187 173.779 120.085 173.866 119.969 173.91C119.401 174.099 119.022 173.91 117.93 174.26C116.46 174.74 115.455 175.992 115.906 177.376C116.445 179.036 118.076 178.876 119.561 178.701C121.134 178.512 121.993 178.351 122.284 179.254C122.459 179.793 122.109 180.506 121.076 180.841C119.518 181.351 118.294 181.031 117.057 180.157L116.795 180.375L117.872 182.254L118.076 182.239C118.163 182.123 118.309 182.021 118.484 181.963C119.212 181.715 119.765 182.021 121.25 181.526C122.575 181.089 123.857 179.88 123.333 178.293C122.823 176.691 121.236 176.822 119.78 176.983ZM127.235 176.91L125.357 173.211C124.862 172.25 124.905 172.09 125.357 171.726L125.196 171.42C124.323 171.886 123.449 172.323 122.546 172.731L122.692 173.051C123.245 172.905 123.391 172.978 123.871 173.954L125.677 177.696C126.143 178.672 126.128 178.817 125.677 179.181L125.837 179.502C126.754 179.079 127.672 178.628 128.575 178.147L128.414 177.827C127.847 177.958 127.716 177.871 127.235 176.91ZM133.38 173.153L130.773 169.454C130.453 168.988 130.482 168.872 130.832 168.624C131.414 168.217 132.259 168.129 133.438 168.391L133.627 168.1L131.997 166.906C131.239 167.518 130.453 168.115 129.361 168.872C128.269 169.629 127.439 170.139 126.594 170.634L127.133 172.556L127.483 172.483C127.657 171.289 128.036 170.546 128.618 170.139C128.968 169.891 129.099 169.92 129.419 170.386L131.953 174.129C132.564 175.031 132.564 175.177 132.171 175.599L132.375 175.891C133.22 175.337 134.064 174.769 134.88 174.158L134.676 173.866C134.137 174.099 134.006 174.041 133.38 173.153ZM140.457 167.008L139.204 165.799L138.84 162.625C138.709 161.489 138.68 160.965 138.855 160.572L138.578 160.354C138.069 160.965 137.472 161.664 136.918 162.276L137.18 162.509C137.661 162.159 138.054 162.392 138.156 163.149L138.447 165.581L135.884 165.202C135.229 165.101 134.982 164.838 135.302 164.445L135.054 164.198C134.356 164.882 133.453 165.712 132.637 166.382L132.856 166.659C133.322 166.557 133.598 166.542 134.254 166.629L138.171 167.154L139.248 168.246C140.005 169.018 140.049 169.163 139.743 169.644L139.991 169.891C140.719 169.192 141.432 168.464 142.131 167.722L141.884 167.474C141.389 167.794 141.228 167.751 140.457 167.008ZM59.2772 110.947C59.4811 110.889 59.7141 110.86 60.0053 111.02L63.2234 112.709C64.3155 113.277 64.5193 113.699 64.4465 114.194L64.7669 114.34C65.0872 113.67 65.4076 113 65.757 112.345L65.4512 112.185C65.1018 112.534 64.6213 112.621 63.5437 112.039L60.6023 110.481L67.9121 108.704L68.1742 108.311L63.5874 105.443C62.539 104.787 62.3788 104.38 62.5244 103.885L62.2332 103.681C61.8109 104.307 61.3886 104.933 60.9955 105.574L61.2867 105.763C61.6653 105.428 62.0439 105.384 63.1651 106.069L65.5969 107.569L59.4811 109.01C58.986 109.127 58.8986 109.243 58.8113 109.374C58.6365 109.709 58.0832 110.816 57.8502 111.34L58.1706 111.486C58.3308 111.282 58.5492 111.151 59.2772 110.947ZM66.3832 104.059C67.9849 105.501 70.4312 105.472 72.0621 103.666C73.6784 101.861 73.4454 99.4289 71.8437 97.9873C70.2419 96.5458 67.7956 96.5749 66.1648 98.3805C64.5339 100.172 64.7814 102.618 66.3832 104.059ZM66.6453 98.8028C67.5626 97.7835 69.1498 97.8563 70.7516 99.2979C72.2805 100.667 72.4989 102.181 71.567 103.229C70.6496 104.249 69.0625 104.176 67.4607 102.734C65.9318 101.366 65.6988 99.8657 66.6453 98.8028ZM72.6009 94.7693L75.1928 98.0019C75.8626 98.861 75.8626 99.0357 75.4986 99.4726L75.7461 99.7493C76.4014 99.1814 77.1877 98.5407 78.0177 97.9L77.8138 97.6233C77.3187 97.8708 77.144 97.8563 76.4887 96.9972L75.6733 95.9342C75.8626 95.774 76.0519 95.6138 76.2558 95.4537C78.8622 96.3128 79.998 96.7642 81.2503 95.8905C81.7745 95.5265 82.0221 94.9731 81.9929 94.4344L81.6289 94.3761C81.5707 94.5945 81.4978 94.7402 81.3085 94.8712C80.6096 95.3663 79.3719 94.6819 77.6828 94.1286C78.5856 93.153 78.7458 92.1482 78.1196 91.3037C77.377 90.2989 76.081 89.9495 73.9114 91.5658C73.0377 92.221 71.6544 93.3423 71.0137 93.8956L71.2321 94.1723C71.7563 93.8956 71.931 93.9102 72.6009 94.7693ZM74.2317 92.1919C75.3238 91.3765 76.183 91.5075 76.78 92.3084C77.3479 93.0802 77.2168 93.8228 76.2994 94.5509C75.9354 94.8421 75.5714 95.0896 75.2365 95.3226L73.3872 92.8909C73.6347 92.687 73.9259 92.4249 74.2317 92.1919ZM79.5612 90.2553C79.8233 89.0758 80.2601 88.3623 80.8863 87.9837C81.294 87.7361 81.425 87.7653 81.6871 88.2749C82.4152 89.6582 83.6238 92.1046 83.8422 92.6433C84.1189 93.2986 84.0315 93.5607 83.6238 93.8665L83.784 94.1723C84.6577 93.7063 85.7206 93.1967 86.6089 92.7889L86.4633 92.4686C85.9682 92.6142 85.7061 92.5123 85.3566 91.9007C85.0799 91.391 83.8713 88.9447 83.2161 87.5177C82.9831 87.0081 83.0268 86.8916 83.4782 86.7023C84.148 86.4402 84.9926 86.5276 86.0847 87.0372L86.3176 86.7897L85.0071 85.2898C83.9587 85.7267 82.9103 86.1926 81.8764 86.7023C80.828 87.2119 79.8233 87.7507 78.8331 88.3186L79.2263 90.2698L79.5612 90.2553ZM88.1233 85.9305L89.3755 89.8767C89.6959 90.9105 89.6231 91.0853 89.1425 91.3619L89.259 91.6968C90.1473 91.3765 91.152 91.027 92.0548 90.7649L91.9529 90.43C91.3996 90.4882 91.2394 90.4009 90.9336 89.367L90.3657 87.4304C91.4432 87.0518 92.7392 86.7169 93.8604 86.4984L94.3409 88.4642C94.603 89.5126 94.5011 89.6728 93.9915 89.8912L94.0788 90.2261C95.0108 89.9932 96.0446 89.7893 96.9765 89.6291L96.9183 89.2797C96.365 89.2797 96.2194 89.1632 95.9718 88.1147L95.069 84.0667C94.8215 83.0037 94.9088 82.8581 95.4185 82.6397L95.3457 82.2902C94.4283 82.4504 93.3071 82.6979 92.346 82.9309L92.4334 83.2658C92.9867 83.2658 93.1178 83.3677 93.3799 84.4162L93.7002 85.7558C92.5353 86.1053 91.3413 86.4256 90.1618 86.7023L89.7832 85.3772C89.4775 84.3434 89.5503 84.1832 90.0162 83.9065L89.9143 83.5862C88.9678 83.8628 87.8757 84.2123 87.002 84.5327L87.1185 84.8676C87.6573 84.8093 87.8175 84.8967 88.1233 85.9305ZM98.8695 83.4988L99.2481 87.6197C99.3355 88.6972 99.2336 88.8574 98.7093 89.0175L98.753 89.3816C99.6558 89.2651 100.763 89.1632 101.957 89.0904C103.005 89.0321 103.966 88.9884 105.058 89.0321L105.728 87.11L105.408 86.9935C105.044 87.4012 104.694 87.7361 104.272 87.9837C103.879 88.2021 103.442 88.3332 102.19 88.406C101.33 88.4497 101.214 88.4351 101.127 88.3477C101.039 88.2604 100.995 88.1002 100.966 87.8818C100.923 87.576 100.821 86.4402 100.719 85.2462C101.84 85.1297 102.321 85.1297 102.728 85.2462C103.063 85.3626 103.165 85.5665 103.252 85.8432L103.617 85.8286L103.558 83.6007L103.194 83.6153C103.136 83.9065 103.049 84.0958 102.699 84.2705C102.481 84.3725 102.102 84.4453 100.661 84.5327C100.602 83.9065 100.559 83.2949 100.53 82.8144C100.515 82.596 100.544 82.4795 100.617 82.4067C100.69 82.3193 100.748 82.3048 101.52 82.2611C103.209 82.1592 103.937 82.2902 104.956 83.0474L105.218 82.829L104.548 81.4893C103.617 81.4748 102.597 81.5185 101.534 81.5767C100.53 81.6349 99.0006 81.766 98.0686 81.8825L98.0978 82.232C98.6511 82.2902 98.7822 82.4213 98.8695 83.4988ZM108.538 88.8428C107.956 88.639 107.767 88.2749 108.189 87.6342L108.771 86.7169L110.227 86.8916C110.737 86.9644 111.261 87.0372 111.785 87.1391L112.135 88.2458C112.31 88.7846 112.164 89.1777 111.669 89.236L111.611 89.5854C112.557 89.7456 113.606 89.964 114.683 90.2116L114.771 89.8621C114.377 89.6146 114.261 89.3233 113.941 88.3768L111.946 82.4941C111.815 82.0863 111.756 81.999 111.509 81.9699C110.839 81.8825 110.198 81.7951 109.587 81.7369L109.558 82.0718C109.805 82.13 109.98 82.2174 110.155 82.3921C110.417 82.6688 110.446 82.7853 110.3 83.0037L107.417 87.4012C106.878 88.2167 106.485 88.5661 106.063 88.6681L106.048 89.0175C106.849 89.0467 107.65 89.1049 108.48 89.1777L108.538 88.8428ZM110.708 83.7609L111.538 86.3965C111.145 86.3528 110.752 86.3091 110.344 86.2509C109.951 86.1926 109.587 86.1344 109.194 86.0762L110.708 83.7609ZM116.445 90.3863C117.173 90.6193 117.421 91.1581 118.789 91.624C120.115 92.0609 121.862 91.8424 122.386 90.2698C122.925 88.6535 121.542 87.809 120.246 87.0663C118.862 86.2655 118.076 85.8723 118.367 84.9841C118.527 84.5035 119.168 84.1541 120.187 84.489C121.396 84.8821 121.935 85.7412 122.401 86.8625L122.75 86.8333L122.823 84.8821L122.648 84.7802C122.575 84.7948 122.444 84.8093 122.313 84.7656C121.745 84.5763 121.527 84.1832 120.435 83.8337C118.964 83.3386 117.406 83.7318 116.955 85.1151C116.416 86.7169 117.77 87.576 119.052 88.304C120.449 89.0904 121.265 89.4981 120.959 90.4154C120.784 90.9542 120.085 91.3182 119.037 90.9688C117.595 90.4882 116.824 89.5272 116.358 88.1002L116.008 88.1147L115.761 90.2553L115.921 90.3572C116.081 90.3281 116.256 90.3281 116.445 90.3863ZM126.463 94.5363C126.056 94.2159 125.983 93.9538 126.274 93.2986C126.522 92.7744 127.803 90.3572 128.575 89.003C128.851 88.5079 128.982 88.4788 129.39 88.7409C130.002 89.134 130.424 89.8621 130.642 91.0561L130.977 91.0998L131.429 89.1632C130.468 88.5661 129.463 87.9983 128.444 87.4595C127.41 86.9207 126.39 86.4111 125.357 85.9451L124.002 87.4012L124.235 87.6633C125.342 87.1828 126.187 87.1246 126.842 87.4012C127.293 87.5905 127.337 87.7216 127.075 88.2167C126.376 89.6146 125.094 92.0317 124.803 92.5268C124.439 93.1384 124.177 93.2258 123.682 93.0656L123.522 93.3859C124.41 93.8228 125.444 94.3761 126.303 94.8566L126.463 94.5363ZM130.322 95.3954C129.681 96.2691 129.492 96.3128 128.997 96.0798L128.793 96.3856C129.55 96.8807 130.453 97.5359 131.385 98.2786C132.2 98.9193 132.972 99.5308 133.758 100.273L135.535 99.2687L135.375 98.9629C134.836 99.0212 134.356 99.0503 133.86 98.9484C133.424 98.861 133.016 98.6717 132.026 97.9C131.341 97.3612 131.283 97.2738 131.269 97.1428C131.254 97.0263 131.341 96.8661 131.458 96.6914C131.633 96.4293 132.302 95.4973 133.016 94.5509C133.933 95.2061 134.297 95.5265 134.53 95.8759C134.705 96.1817 134.647 96.4001 134.53 96.6622L134.821 96.8952L136.219 95.2207L135.928 94.9877C135.695 95.1624 135.506 95.2498 135.127 95.1479C134.894 95.0896 134.574 94.8858 133.424 94.0121C133.802 93.5024 134.166 93.0074 134.457 92.6288C134.588 92.454 134.69 92.3958 134.792 92.3812C134.909 92.3667 134.967 92.3958 135.564 92.8617C136.904 93.9102 137.37 94.478 137.632 95.7158L137.967 95.7303L138.345 94.2888C137.646 93.6626 136.86 93.0219 136.03 92.3667C135.244 91.7551 133.991 90.8377 133.22 90.3135L133.016 90.5902C133.394 91.0125 133.409 91.1872 132.768 92.0609L130.322 95.3954ZM135.433 101.351L135.186 101.613C135.797 102.225 136.496 102.953 137.195 103.739L137.457 103.506C137.166 103.04 137.18 102.865 137.981 102.137L138.971 101.249C139.146 101.424 139.321 101.613 139.496 101.802C138.782 104.423 138.404 105.574 139.379 106.739C139.787 107.234 140.34 107.423 140.864 107.336L140.879 106.972C140.661 106.928 140.515 106.87 140.369 106.68C139.831 106.04 140.428 104.802 140.894 103.113C141.942 103.943 142.961 104.03 143.762 103.346C144.709 102.53 144.956 101.22 143.18 99.1814C142.466 98.3514 141.243 97.07 140.646 96.473L140.384 96.7059C140.675 97.1865 140.661 97.3612 139.86 98.1038L136.831 100.929C136.074 101.657 135.884 101.671 135.433 101.351ZM141.811 98.7445C142.044 98.9775 142.335 99.2542 142.583 99.5454C143.471 100.579 143.413 101.438 142.655 102.094C141.942 102.72 141.17 102.647 140.384 101.788C140.064 101.453 139.787 101.103 139.525 100.783L141.811 98.7445ZM141.01 108.093L140.719 108.297C141.127 108.923 141.534 109.534 141.913 110.175L142.219 110C142.102 109.52 142.277 109.069 143.325 108.428L146.179 106.724L143.937 113.903L144.141 114.325L148.961 111.879C150.067 111.326 150.489 111.398 150.854 111.762L151.174 111.617C150.868 110.932 150.533 110.233 150.184 109.578L149.863 109.738C149.951 110.233 149.791 110.583 148.626 111.194L146.092 112.52L148.014 106.535C148.174 106.054 148.116 105.909 148.043 105.778C147.854 105.443 147.184 104.423 146.849 103.943L146.543 104.118C146.645 104.351 146.66 104.613 146.441 105.326C146.383 105.53 146.281 105.749 146.005 105.909L142.903 107.802C141.869 108.442 141.389 108.399 141.01 108.093Z" fill="white"></path>
    </g>
  </g>
  <defs>
    <clipPath id="clip0_7289_13022">
      <rect width="473" height="270" fill="white" transform="translate(0.769531 -0.00500488)"></rect>
    </clipPath>
    <clipPath id="clip1_7289_13022">
      <rect width="369.858" height="120" fill="white" transform="translate(46.7695 74.995)"></rect>
    </clipPath>
  </defs>
</svg>
